<?xml version="1.0" standalone="no"?>
<!DOCTYPE svg PUBLIC "-//W3C//DTD SVG 20010904//EN"
 "http://www.w3.org/TR/2001/REC-SVG-20010904/DTD/svg10.dtd">
<svg version="1.0" xmlns="http://www.w3.org/2000/svg"
 width="1024.000000pt" height="1024.000000pt" viewBox="0 0 1024.000000 1024.000000"
 preserveAspectRatio="xMidYMid meet">
<metadata>
Created by potrace 1.14, written by Peter Selinger 2001-2017
</metadata>
<g transform="translate(0.000000,1024.000000) scale(0.100000,-0.100000)"
fill="#000000" stroke="none">
<path d="M0 5120 l0 -5120 5120 0 5120 0 0 5120 0 5120 -1055 0 c-889 0 -1055
-2 -1055 -14 0 -7 -7 -19 -15 -26 -8 -7 -13 -22 -11 -35 2 -12 0 -28 -4 -36
-6 -8 -8 6 -6 36 3 46 3 48 -8 22 -7 -15 -16 -24 -21 -20 -5 5 -3 -1 5 -11 10
-14 11 -17 2 -12 -8 5 -23 -2 -40 -20 -15 -15 -20 -23 -12 -19 8 5 -4 -10 -28
-34 -24 -24 -41 -50 -38 -57 3 -8 1 -13 -5 -11 -6 1 -16 -7 -22 -18 -7 -11
-20 -32 -30 -47 -10 -16 -15 -28 -10 -28 4 0 3 -4 -4 -8 -6 -4 -28 -38 -48
-75 -19 -38 -31 -66 -25 -62 6 3 7 0 4 -9 -3 -9 -11 -13 -18 -9 -6 3 -8 3 -4
-2 4 -4 2 -15 -5 -23 -10 -13 -9 -14 3 -7 12 7 13 6 3 -7 -7 -8 -9 -19 -5 -23
4 -5 1 -5 -7 0 -11 6 -13 3 -8 -16 6 -23 6 -24 -10 -4 -15 20 -15 20 -10 -2 3
-16 1 -23 -9 -23 -12 0 -12 -4 -4 -20 8 -16 8 -20 -2 -18 -7 2 -12 -3 -10 -11
2 -11 0 -12 -10 -4 -10 9 -13 5 -15 -18 -2 -21 1 -28 10 -22 7 4 7 0 -2 -10
-14 -17 -26 -24 -17 -9 3 5 -1 9 -8 9 -8 0 -12 -6 -9 -14 3 -7 10 -13 16 -13
6 0 3 -6 -8 -13 -10 -8 -15 -19 -12 -24 4 -6 -1 -17 -11 -24 -16 -13 -16 -13
-2 5 13 17 13 19 0 14 -8 -3 -15 -14 -15 -26 -1 -28 -20 -48 -30 -31 -5 7 -4
10 1 6 6 -3 10 5 10 18 0 13 -4 21 -9 18 -4 -3 -6 -8 -3 -11 9 -9 -15 -32 -27
-25 -6 3 -7 1 -3 -6 4 -6 10 -10 14 -7 4 2 16 -5 27 -16 15 -15 16 -18 3 -13
-11 4 -18 0 -23 -14 -3 -12 -10 -19 -15 -16 -4 2 -11 -10 -15 -28 -4 -17 -9
-26 -12 -19 -2 6 -9 9 -14 6 -6 -3 -5 -12 3 -22 7 -10 8 -14 4 -10 -5 4 -16 2
-25 -5 -14 -10 -14 -10 -4 4 7 9 10 19 6 22 -3 4 -12 -1 -19 -11 -9 -13 -10
-21 -1 -32 6 -8 1 -6 -12 5 -21 17 -23 18 -18 3 3 -10 3 -20 -2 -22 -4 -3 -8
0 -9 7 -2 28 -9 48 -20 59 -12 12 -11 2 4 -49 4 -14 2 -23 -5 -23 -5 0 -8 6
-5 13 3 8 -3 20 -13 28 -16 13 -17 12 -5 -3 13 -16 11 -17 -16 -13 -29 3 -38
-12 -18 -32 4 -4 6 -2 4 6 -1 7 3 16 9 18 17 6 29 -25 15 -39 -8 -8 -9 -5 -5
11 3 12 1 21 -6 21 -6 0 -10 -4 -9 -10 2 -5 -10 -20 -26 -33 -21 -17 -28 -32
-29 -59 -1 -20 -4 -35 -8 -32 -4 2 -9 1 -12 -3 -2 -5 -2 -3 -1 4 2 7 -3 19
-11 27 -20 20 -19 26 6 21 17 -3 20 0 16 15 -3 13 -1 18 6 13 7 -4 6 1 -2 10
-17 22 -21 21 -16 -3 2 -11 -1 -23 -7 -26 -6 -4 -8 -3 -5 2 3 6 1 16 -5 24 -8
12 -9 12 -4 -2 3 -10 1 -20 -5 -23 -5 -4 -9 -12 -8 -18 3 -28 -2 -48 -11 -42
-5 3 -7 12 -3 20 3 8 0 15 -6 15 -6 0 -10 -4 -9 -9 3 -8 -2 -11 -17 -11 -3 0
-1 9 5 19 7 15 7 22 -2 27 -7 4 -10 4 -6 -1 11 -11 -11 -47 -24 -39 -7 4 -8 3
-4 -5 4 -6 11 -9 16 -6 4 3 13 -2 19 -9 8 -9 8 -17 2 -20 -5 -3 -12 0 -14 6
-4 10 -6 10 -6 0 -1 -7 -5 -11 -10 -8 -11 7 -8 -20 3 -31 4 -4 6 -3 4 4 -1 6
2 11 7 11 6 1 9 -7 7 -16 -2 -15 -1 -15 7 -2 6 8 11 10 11 5 0 -6 -5 -16 -12
-23 -7 -7 -13 -21 -13 -32 0 -11 -4 -19 -9 -19 -5 0 -12 -5 -16 -11 -5 -8 -10
-2 -14 15 -4 17 -2 32 5 39 8 8 10 6 5 -10 -4 -15 -2 -24 9 -28 9 -3 15 0 15
10 0 8 -4 12 -10 9 -16 -10 -12 2 7 21 13 13 14 16 3 12 -9 -3 -21 4 -28 16
-12 20 -13 20 -6 -4 6 -22 5 -23 -9 -12 -14 12 -16 11 -12 -8 2 -12 7 -30 10
-41 9 -26 -3 -24 -16 4 -8 20 -9 19 -4 -6 5 -22 2 -27 -11 -25 -9 2 -19 -2
-21 -8 -2 -6 9 -9 27 -8 35 2 36 1 13 -17 -10 -9 -14 -9 -10 -2 6 9 -4 11 -35
9 -24 -2 -48 1 -55 6 -7 6 -14 5 -18 -2 -3 -5 -12 -10 -18 -10 -7 0 -4 5 6 11
9 5 17 15 17 20 0 6 -4 8 -8 5 -4 -2 -9 5 -9 17 -2 21 -1 22 13 3 8 -11 14
-15 14 -9 0 7 -4 15 -10 18 -6 3 -10 11 -10 16 0 16 21 -1 30 -25 7 -17 9 -18
9 -3 1 10 5 16 10 12 5 -3 8 -17 5 -30 -2 -14 0 -25 6 -25 5 0 10 7 10 15 0
13 11 19 31 17 4 -1 4 9 1 21 -5 18 -7 19 -10 5 -6 -29 -19 -21 -16 10 3 37 2
36 17 23 10 -8 14 -7 14 3 0 15 -14 16 -34 3 -8 -5 -13 -3 -13 5 0 7 -7 2 -16
-10 -12 -18 -19 -20 -29 -12 -10 9 -16 7 -24 -9 -6 -11 -11 -26 -11 -34 0 -8
-9 -17 -20 -20 -11 -3 -18 -1 -14 4 3 5 -2 9 -11 9 -9 0 -13 -5 -10 -10 4 -6
1 -9 -7 -8 -8 2 -12 -5 -10 -17 2 -16 1 -17 -7 -5 -5 8 -6 19 -2 25 5 5 7 18
6 28 -2 9 1 17 7 17 6 0 7 -7 4 -16 -3 -8 -2 -12 4 -9 5 3 7 22 4 42 -3 19 -2
33 3 30 5 -3 9 5 9 19 0 24 0 24 -33 -8 -18 -17 -29 -36 -26 -41 3 -6 1 -7 -5
-3 -7 4 -12 2 -12 -4 0 -6 -5 -8 -12 -4 -7 5 -9 2 -5 -8 8 -21 -3 -30 -20 -17
-10 9 -13 8 -13 0 0 -22 -53 -59 -79 -54 -20 3 -22 1 -13 -10 9 -11 8 -14 -3
-14 -8 0 -12 4 -9 9 3 4 0 8 -6 8 -6 0 -8 5 -5 10 3 6 -1 10 -10 10 -10 0 -13
-5 -9 -12 4 -7 3 -8 -5 -4 -6 4 -9 11 -6 16 3 5 -1 14 -8 22 -7 7 -15 18 -16
23 -1 6 -5 12 -8 15 -4 3 -3 0 1 -7 3 -6 2 -14 -3 -17 -5 -4 -8 5 -6 19 2 22
0 23 -13 13 -14 -12 -14 -10 -2 12 13 24 12 24 -5 10 -17 -13 -18 -13 -10 0
12 19 14 121 2 113 -4 -3 -7 1 -6 8 2 15 -17 69 -25 69 -2 0 -2 -9 1 -20 3
-12 0 -20 -6 -20 -7 0 -9 -5 -5 -12 5 -9 2 -9 -9 1 -18 14 -22 23 -10 19 5 -2
9 0 11 5 5 16 1 19 -13 7 -8 -7 -12 -16 -9 -21 3 -5 -2 -9 -10 -9 -10 0 -13
-7 -11 -20 2 -12 0 -18 -6 -15 -5 4 -7 11 -4 16 4 5 1 9 -5 9 -6 0 -9 4 -5 9
3 5 0 13 -6 17 -8 4 -9 3 -5 -4 4 -7 1 -12 -9 -12 -10 0 -13 5 -9 12 5 7 3 8
-5 4 -7 -5 -10 -10 -7 -13 9 -9 -38 -53 -52 -48 -12 5 -13 3 -2 -10 7 -9 9
-15 4 -14 -21 4 -26 -2 -13 -18 13 -17 13 -17 -7 0 -11 9 -25 17 -31 17 -6 0
-13 5 -15 12 -3 7 -7 5 -11 -6 -5 -12 -3 -15 6 -10 6 4 9 3 4 -1 -4 -5 -18
-10 -30 -12 -18 -2 -19 -1 -7 7 12 8 11 9 -7 7 -12 -2 -26 -7 -30 -12 -5 -4
-3 -5 3 -2 6 3 11 0 11 -8 0 -9 -4 -11 -11 -6 -19 16 -23 16 -39 3 -10 -9 -17
-10 -22 -2 -4 6 -1 9 5 8 7 -2 16 7 20 19 7 17 6 21 -5 16 -8 -3 -13 -8 -10
-12 2 -4 -2 -8 -10 -8 -13 0 -13 3 1 18 12 13 12 19 3 25 -7 4 -10 3 -6 -3 7
-12 -17 -25 -27 -16 -3 4 -6 16 -5 27 1 19 2 18 10 -4 l8 -25 -2 25 c-1 14 -6
23 -11 22 -5 -2 -12 2 -17 9 -4 8 -24 14 -43 14 -19 1 -33 -2 -30 -6 2 -4 13
-6 24 -4 12 2 18 0 15 -5 -3 -5 -17 -7 -31 -4 -18 3 -23 1 -18 -7 4 -8 3 -9
-5 -5 -6 4 -9 11 -6 16 6 10 -15 8 -34 -4 -11 -7 -13 -5 -9 6 5 12 -1 15 -28
13 -18 -1 -32 1 -29 3 3 3 -2 14 -12 24 -9 10 -13 18 -8 18 4 0 0 11 -9 24
-11 18 -13 27 -4 32 7 5 8 3 3 -6 -6 -9 -4 -11 5 -5 8 5 11 4 7 -1 -3 -6 -1
-16 4 -24 7 -12 8 -10 6 7 -2 11 -8 27 -14 35 -6 7 -9 21 -8 31 2 9 -1 15 -5
12 -5 -3 -7 -14 -5 -24 4 -21 -17 -23 -36 -4 -6 6 -19 9 -28 6 -9 -4 -13 -3
-10 1 9 10 50 16 44 6 -3 -5 0 -12 6 -15 7 -5 9 -1 7 11 -2 11 -10 18 -17 16
-9 -2 -12 4 -8 18 3 11 1 18 -3 15 -5 -3 -10 -1 -12 5 -2 6 -9 0 -17 -12 -13
-21 -13 -22 2 -9 15 12 17 11 17 -4 0 -10 -3 -15 -7 -12 -3 4 -13 1 -22 -5 -9
-7 -13 -8 -9 -4 4 5 2 16 -5 24 -8 10 -8 13 -1 9 19 -11 24 20 6 35 -15 12
-16 11 -3 -4 7 -10 9 -18 3 -18 -12 0 -21 21 -15 38 4 10 8 10 21 0 13 -11 14
-11 7 2 -14 22 -15 41 -3 63 7 14 7 17 -1 13 -6 -4 -12 -2 -12 3 -1 6 -3 16
-4 21 -1 6 -3 13 -4 16 0 4 -7 1 -14 -5 -17 -13 -27 -5 -20 17 4 14 3 14 -5 3
-8 -12 -13 -11 -31 1 -11 8 -18 19 -13 24 4 4 -1 3 -10 -4 -14 -11 -16 -10
-13 5 1 10 8 17 13 16 6 -2 9 4 6 12 -4 8 -10 15 -16 15 -5 0 -6 -4 -3 -10 3
-5 1 -10 -4 -10 -6 0 -11 9 -11 20 0 11 -4 20 -10 20 -5 0 -10 5 -10 11 0 5 5
7 12 3 7 -5 8 -3 4 5 -5 7 -15 10 -23 6 -14 -5 -14 -3 -2 12 8 9 9 14 2 10 -6
-4 -15 -3 -18 3 -4 6 -16 8 -27 4 -15 -4 -18 -3 -13 6 5 9 4 11 -4 6 -6 -4 -9
-11 -6 -16 3 -5 0 -12 -6 -16 -7 -4 -9 -3 -6 3 3 5 -8 20 -25 33 -17 12 -28
18 -24 11 4 -6 2 -11 -4 -11 -6 0 -8 -5 -4 -12 4 -7 3 -8 -4 -4 -6 4 -8 14 -5
24 3 9 3 14 -1 10 -11 -9 -46 23 -39 35 4 6 1 7 -7 2 -10 -6 -12 -3 -8 13 4
12 0 26 -8 33 -8 6 -11 16 -7 22 3 6 1 7 -6 3 -6 -4 -9 -11 -6 -16 3 -5 1 -11
-5 -15 -5 -3 -10 1 -10 10 0 10 -5 14 -12 10 -7 -4 -5 0 5 8 15 13 15 16 2 27
-8 7 -13 16 -10 20 3 4 -3 14 -13 21 -15 12 -16 12 -6 -1 6 -8 10 -31 9 -50
-2 -25 6 -44 28 -72 16 -21 34 -35 38 -32 5 3 9 -3 9 -12 0 -10 3 -15 6 -11 3
3 19 -10 36 -29 16 -19 35 -31 41 -27 5 3 7 2 4 -4 -4 -6 5 -21 18 -33 36 -34
85 -113 85 -138 0 -11 4 -22 9 -24 13 -5 -3 -102 -22 -132 -17 -26 -87 -66
-156 -91 -42 -15 -76 -5 -86 24 -8 25 12 64 27 55 7 -5 9 -1 5 9 -4 11 -1 17
8 17 12 0 12 3 -2 18 -10 10 -20 16 -23 13 -3 -4 -14 -8 -25 -9 -11 -2 -22 -8
-25 -12 -7 -12 -43 -16 -57 -7 -7 5 -13 5 -13 1 0 -3 -15 5 -34 19 -18 15 -58
37 -87 50 -64 28 -77 42 -119 122 -30 57 -32 64 -26 136 5 55 2 85 -8 110 -15
36 -23 39 -38 17 -8 -10 -9 -9 -4 4 3 10 1 20 -4 23 -12 7 -3 52 18 95 26 53
16 88 -23 80 -6 -1 -5 4 1 10 7 7 9 24 4 43 -4 18 -6 34 -6 37 0 3 -7 16 -17
30 -9 13 -17 19 -17 13 0 -7 5 -15 10 -18 6 -4 7 -11 4 -17 -4 -6 -3 -8 3 -5
5 3 10 0 10 -8 0 -11 -4 -12 -14 -3 -7 6 -11 13 -8 16 3 3 0 11 -6 18 -6 8 -8
21 -5 30 5 14 4 15 -8 5 -11 -9 -16 -9 -22 0 -4 7 -3 9 3 6 6 -4 13 0 17 8 3
8 0 17 -6 21 -7 5 -8 2 -3 -7 5 -8 4 -11 0 -6 -5 4 -9 20 -10 35 0 24 -4 27
-33 28 -39 1 -59 -18 -38 -36 13 -10 15 -8 11 10 -4 18 -2 20 11 9 13 -10 12
-14 -3 -32 -11 -12 -12 -17 -4 -12 11 6 13 4 6 -11 -10 -25 -14 -76 -6 -89 3
-5 6 -15 7 -22 1 -6 5 -31 9 -55 3 -24 8 -55 9 -69 2 -15 7 -32 11 -39 6 -9 4
-11 -6 -5 -11 7 -12 6 -2 -7 7 -8 10 -18 6 -21 -3 -4 -2 -7 3 -7 11 0 12 -75
1 -86 -15 -15 -6 -26 10 -13 17 13 17 13 1 -7 -10 -11 -18 -26 -18 -32 0 -6
-4 -13 -9 -16 -5 -4 -8 2 -6 11 2 10 4 18 5 18 7 0 4 47 -3 52 -6 3 -7 1 -4
-4 4 -6 -2 -18 -13 -28 -18 -17 -30 -8 -12 9 4 4 8 16 8 27 1 10 2 20 4 22 8
10 4 44 -6 44 -9 0 -10 -5 -4 -17 5 -10 6 -21 2 -25 -4 -3 -7 -14 -8 -23 -1
-27 -15 -52 -25 -46 -5 3 -6 11 -2 17 10 16 13 41 5 32 -4 -4 -7 -11 -7 -16 0
-5 -4 -8 -10 -7 -5 2 -8 7 -6 13 10 28 5 40 -16 39 -14 -1 -23 4 -23 13 0 8 4
12 8 9 4 -2 9 4 9 15 2 17 0 17 -13 5 -17 -17 -18 -38 -3 -53 7 -7 7 -13 1
-17 -14 -9 -29 42 -26 88 2 27 0 35 -7 25 -5 -7 -9 -11 -10 -6 -2 10 -6 25 -9
35 -1 4 -2 11 -1 15 1 5 -3 6 -9 2 -8 -5 -7 -12 2 -23 11 -14 10 -15 -7 -9
-17 6 -18 5 -5 -5 9 -8 16 -32 16 -63 2 -47 1 -48 -10 -22 -7 15 -16 24 -21
20 -4 -5 -4 -1 1 7 13 23 13 38 -1 50 -15 12 -16 -5 -2 -27 5 -7 5 -13 0 -13
-4 0 -16 14 -25 31 -10 16 -13 27 -8 24 16 -10 11 7 -7 28 -10 11 -12 17 -5
13 6 -4 12 -4 13 1 0 4 2 15 4 24 1 8 -6 26 -17 40 l-19 24 12 -25 c17 -33 19
-50 8 -50 -6 0 -9 6 -7 13 1 6 -3 22 -10 34 -8 14 -9 24 -2 28 5 3 10 14 10
23 0 15 -2 15 -11 2 -8 -12 -9 -10 -4 9 4 14 3 21 -2 18 -5 -4 -10 0 -10 8 0
8 3 13 5 10 3 -3 11 3 19 13 13 15 13 15 4 -5 -8 -15 -8 -24 -1 -28 6 -4 10
-3 9 2 -3 20 2 34 11 28 6 -4 8 -10 6 -14 -8 -12 -18 -76 -11 -69 6 6 13 31
14 56 1 8 6 10 14 6 6 -4 4 2 -6 13 -9 11 -15 23 -12 26 3 4 2 5 -2 2 -12 -9
-32 16 -26 33 5 14 3 15 -7 5 -11 -10 -11 -15 1 -30 7 -10 9 -15 5 -11 -5 4
-16 2 -25 -4 -9 -7 -13 -8 -9 -4 4 5 2 16 -5 24 -9 13 -9 14 1 8 11 -6 16 4
13 26 -2 15 33 0 41 -18 7 -18 8 -18 6 1 -2 11 2 27 7 35 7 12 6 13 -7 3 -15
-13 -28 -8 -28 9 0 5 5 6 12 2 7 -5 8 -3 3 6 -6 10 -11 9 -22 -5 -12 -17 -13
-17 -13 -2 0 16 -152 17 -2315 17 l-2315 0 0 -5120z m8607 5095 c0 -8 -4 -12
-9 -9 -5 3 -6 10 -3 15 9 13 12 11 12 -6z m-460 -29 c0 -8 -6 -12 -15 -9 -11
5 -11 7 0 14 7 5 13 9 14 9 0 0 1 -6 1 -14z m3 -31 c0 -2 -6 -5 -13 -8 -8 -3
-14 1 -14 8 0 7 6 11 14 8 7 -3 13 -6 13 -8z m-79 -39 c-7 -9 -8 -17 -2 -20 5
-3 11 -1 13 6 3 8 6 6 10 -4 7 -16 -14 -20 -28 -5 -4 4 -17 -1 -28 -10 -21
-18 -21 -18 -3 3 9 11 14 24 10 29 -5 4 -3 5 4 1 6 -3 14 -2 18 4 3 5 9 10 12
10 3 0 0 -6 -6 -14z m64 4 c3 -6 -1 -7 -9 -4 -18 7 -21 14 -7 14 6 0 13 -4 16
-10z m-101 -76 c3 -8 2 -12 -4 -9 -6 3 -10 10 -10 16 0 14 7 11 14 -7z m61 -4
c3 -6 -1 -7 -9 -4 -18 7 -21 14 -7 14 6 0 13 -4 16 -10z m-88 -37 c0 -8 -4
-10 -12 -3 -7 5 -16 6 -20 2 -5 -4 -5 -2 -2 4 9 15 34 13 34 -3z m-2955 -61
c-8 -22 -21 6 -14 31 5 20 6 20 12 1 4 -10 5 -25 2 -32z m2885 -7 c0 -8 -4
-12 -9 -9 -5 3 -6 10 -3 15 9 13 12 11 12 -6z m-3171 -78 c-6 -32 16 -80 38
-83 13 -2 17 3 13 15 -2 11 1 18 9 18 16 0 17 -6 4 -27 -11 -17 26 -63 43 -53
6 4 8 -2 5 -15 -8 -30 0 -28 12 3 5 14 15 25 21 25 8 0 8 -4 -1 -15 -7 -8 -10
-15 -6 -15 4 0 0 -13 -9 -30 -14 -28 -13 -34 8 -31 12 2 8 -6 -10 -20 -10 -7
-15 -9 -10 -4 4 4 -1 17 -10 28 -10 12 -12 17 -4 12 9 -5 12 -3 9 6 -3 8 -10
14 -16 14 -5 0 -14 3 -18 7 -4 4 -14 2 -23 -5 -13 -10 -14 -10 -5 3 5 8 9 21
8 28 -1 6 -2 20 -3 30 -1 15 -3 15 -11 2 -6 -9 -10 -11 -10 -3 0 7 -7 10 -17
6 -11 -4 -14 -3 -9 5 4 6 2 21 -5 33 -15 29 -22 102 -9 94 6 -4 8 -16 6 -28z
m739 -78 c-10 -15 -25 -10 -19 6 4 8 10 12 15 9 5 -3 7 -10 4 -15z m104 -92
c8 -10 7 -14 -2 -14 -8 0 -14 6 -14 14 0 7 1 13 2 13 2 0 8 -6 14 -13z m-1549
-128 c0 6 5 11 12 11 9 0 9 -3 1 -11 -6 -6 -9 -17 -7 -24 7 -17 -22 -27 -33
-12 -8 11 -9 20 -4 43 0 4 8 1 16 -6 10 -9 15 -9 15 -1z m116 -33 c1 -7 -4
-13 -12 -13 -9 0 -11 4 -4 12 5 7 8 15 5 18 -3 4 -2 5 2 2 4 -3 8 -11 9 -19z
m1614 5 c0 -5 9 -11 20 -14 23 -6 27 -26 5 -23 -18 3 -51 46 -36 46 6 0 11 -4
11 -9z m79 -65 c-3 -3 -11 5 -18 17 -13 21 -12 21 5 5 10 -10 16 -20 13 -22z
m-919 -8 c8 -3 55 -23 103 -46 49 -23 94 -42 101 -42 7 0 17 -5 24 -12 7 -7
12 -9 12 -5 0 10 102 -32 122 -50 9 -8 21 -28 27 -45 9 -26 7 -33 -22 -62 -18
-17 -44 -46 -59 -64 l-27 -32 -34 16 c-50 24 -160 7 -219 -33 l-43 -29 2 40
c1 23 5 52 9 66 12 44 13 70 3 70 -6 0 -7 5 -3 11 4 7 1 10 -6 7 -15 -5 -66
40 -62 54 1 5 -2 7 -7 4 -5 -4 -11 -1 -13 4 -2 6 -15 13 -30 15 -15 3 -38 9
-52 15 -13 5 -26 7 -28 4 -11 -10 -37 33 -32 53 6 21 54 50 96 58 11 3 23 7
27 10 6 6 78 1 111 -7z m2650 -148 c-6 -11 -13 -20 -16 -20 -2 0 0 9 6 20 6
11 13 20 16 20 2 0 0 -9 -6 -20z m-35 -59 c3 -5 0 -13 -6 -17 -8 -4 -9 -3 -5
4 4 7 2 12 -3 12 -6 0 -11 -5 -11 -12 0 -6 -3 -9 -6 -5 -7 7 4 27 16 27 5 0
11 -4 15 -9z m-182 -73 c-6 -7 -9 -21 -8 -30 2 -10 0 -20 -4 -23 -4 -2 -7 6
-7 18 2 23 13 47 23 47 3 0 1 -6 -4 -12z m-1189 -14 c3 -8 2 -12 -4 -9 -6 3
-10 1 -10 -6 0 -7 -2 -10 -5 -7 -5 5 4 38 10 38 2 0 6 -7 9 -16z m437 -7 c-7
-7 -5 -14 7 -24 15 -13 15 -13 -5 -4 -15 8 -20 17 -16 31 3 11 10 17 15 14 6
-4 6 -10 -1 -17z m-104 -17 c-1 -21 -10 -18 -13 5 -1 8 2 15 6 15 5 0 8 -9 7
-20z m781 -27 c-1 -10 1 -23 5 -30 5 -8 1 -11 -13 -8 -15 3 -20 -1 -20 -17 0
-21 0 -21 -14 -2 -9 12 -11 23 -5 30 5 6 5 15 1 20 -4 4 1 2 11 -5 16 -13 19
-12 24 7 6 26 15 29 11 5z m-1868 -7 c19 -3 62 -12 95 -20 33 -8 123 -17 200
-20 156 -5 145 -3 238 -35 80 -27 130 -67 157 -125 43 -95 35 -115 -47 -121
-85 -6 -129 -14 -207 -40 -43 -14 -88 -26 -101 -27 -13 -1 -21 -6 -19 -10 3
-4 -2 -8 -10 -8 -9 0 -16 -4 -16 -9 0 -5 -8 -12 -17 -15 -10 -4 -35 -21 -57
-40 -38 -34 -69 -38 -80 -11 -3 9 0 12 9 9 8 -3 12 1 12 13 -1 11 4 17 12 15
12 -3 12 0 1 13 -11 13 -10 15 6 9 18 -5 18 -5 0 10 -15 12 -23 13 -33 4 -10
-8 -12 -8 -8 4 8 19 -50 18 -68 -2 -9 -11 -7 -11 8 0 19 14 19 14 6 -3 -11
-14 -16 -15 -29 -5 -11 9 -14 9 -9 1 4 -7 -1 -14 -13 -18 -11 -3 -20 -11 -20
-16 0 -21 -2 -24 -23 -33 -12 -5 -25 -9 -28 -8 -4 1 -12 -12 -19 -28 -11 -27
-21 -35 -42 -31 -5 0 -8 -4 -8 -10 0 -5 -4 -8 -9 -4 -5 3 -12 1 -16 -5 -4 -6
-11 -8 -16 -5 -5 4 -9 2 -9 -4 0 -10 -25 -9 -36 2 -4 4 -14 1 -22 -6 -13 -9
-14 -9 -8 1 4 6 2 12 -3 12 -6 0 -11 -6 -11 -12 0 -9 -4 -8 -10 2 -6 10 -10
11 -10 3 0 -16 -166 -9 -186 8 -8 6 -19 30 -25 52 -15 57 0 99 60 175 42 52
91 150 91 182 0 5 15 25 34 44 25 27 42 36 65 36 42 0 89 21 130 58 18 17 38
29 45 27 6 -2 27 -6 46 -9z m1207 -36 c1 -11 -2 -22 -6 -24 -6 -4 -7 26 -2 42
3 8 7 -1 8 -18z m333 -3 c0 -2 -10 -12 -22 -23 l-23 -19 19 23 c18 21 26 27
26 19z m334 -15 c3 -5 -1 -9 -9 -9 -8 0 -12 4 -9 9 3 4 7 8 9 8 2 0 6 -4 9 -8z
m2646 -20 c0 -4 -10 -13 -21 -21 -24 -14 -99 -42 -99 -36 0 5 103 65 113 65 4
0 7 -3 7 -8z m-2844 -28 c2 -11 -1 -12 -10 -5 -7 6 -17 7 -22 3 -4 -4 -2 1 5
11 15 19 24 16 27 -9z m2673 -71 c-13 -15 -28 -31 -34 -35 -7 -5 -7 -8 0 -8 6
0 2 -5 -7 -11 -10 -5 -18 -19 -18 -29 0 -10 -5 -22 -10 -25 -6 -4 -8 -11 -5
-16 4 -5 2 -9 -3 -9 -10 0 -27 -64 -23 -90 1 -10 -2 -9 -10 4 -28 45 20 169
84 216 51 37 58 38 26 3z m290 -269 c14 -12 -19 -1 -35 12 -18 14 -18 14 6 3
14 -6 27 -13 29 -15z m-7219 -29 c13 -16 5 -55 -13 -56 -7 0 -34 0 -62 1 -27
2 -68 3 -91 3 -52 1 -55 23 -5 36 20 6 52 14 71 19 52 15 86 14 100 -3z m2630
11 c0 -2 -8 -10 -17 -17 -16 -13 -17 -12 -4 4 13 16 21 21 21 13z m2013 -12
c99 -22 121 -37 114 -79 -5 -33 -5 -33 56 -50 74 -20 209 -83 254 -117 39 -30
80 -88 89 -126 l7 -27 -34 30 c-19 17 -36 33 -39 36 -3 4 -27 21 -54 38 -93
58 -282 122 -518 175 -16 4 -28 11 -28 17 0 6 -5 7 -10 4 -6 -3 -13 1 -16 9
-3 9 -10 13 -15 10 -5 -3 -9 0 -9 6 0 6 13 8 33 5 25 -4 28 -3 15 5 -21 13
-24 50 -6 68 16 16 75 15 161 -4z m2722 -24 c-4 -17 -9 -30 -11 -27 -2 2 -1
18 2 36 4 17 9 30 11 27 3 -2 2 -19 -2 -36z m-4712 -2 c10 -5 15 -13 12 -19
-4 -5 -10 -7 -15 -4 -4 3 -13 -2 -20 -10 -14 -17 -30 -20 -30 -4 0 5 4 8 8 5
5 -3 9 2 9 10 0 10 -4 11 -11 4 -15 -15 -26 -12 -26 9 0 21 41 26 73 9z m4632
-18 c-11 -5 -31 -8 -45 -8 -23 0 -22 1 5 8 42 11 65 11 40 0z m-6956 -49 c50
-26 90 -75 137 -167 35 -70 40 -111 11 -102 -6 3 -35 39 -63 81 -27 42 -61 88
-75 103 -26 28 -116 73 -158 79 -14 2 -46 6 -71 10 -25 4 -51 8 -57 8 -32 1 3
11 50 15 28 2 53 4 54 6 9 9 139 -17 172 -33z m6796 19 c-3 -5 -14 -10 -23 -9
-14 0 -13 2 3 9 27 11 27 11 20 0z m225 6 c0 -2 -8 -10 -17 -17 -16 -13 -17
-12 -4 4 13 16 21 21 21 13z m-320 -24 c-8 -3 -21 -11 -28 -19 -8 -7 -17 -11
-22 -8 -5 3 -18 -7 -29 -21 -12 -15 -21 -21 -21 -13 0 26 50 66 83 66 18 1 25
-2 17 -5z m267 -15 c-55 -36 -192 -149 -189 -157 1 -6 -5 -10 -14 -10 -8 0
-12 -4 -9 -10 3 -5 1 -19 -6 -31 -6 -13 -7 -19 -1 -15 11 7 28 -32 18 -41 -3
-4 -6 1 -6 10 0 10 -8 17 -19 17 -17 0 -111 102 -111 121 0 17 22 20 38 6 19
-16 46 -12 35 6 -5 8 -2 8 9 0 21 -18 31 -3 12 18 -14 16 -14 18 5 29 14 7 21
7 21 0 0 -5 -4 -10 -10 -10 -5 0 -10 -5 -10 -11 0 -5 4 -8 9 -4 5 3 13 1 16
-5 5 -8 12 -7 22 2 33 27 41 14 11 -18 -30 -32 -57 -47 -43 -24 3 6 -1 7 -10
4 -19 -8 -14 -29 7 -28 14 1 133 87 143 105 9 14 -8 11 -32 -6 -12 -8 -24 -11
-27 -6 -5 8 29 22 64 26 8 1 31 12 50 24 36 22 59 29 27 8z m-276 -70 c-6 -8
-7 -18 -3 -22 4 -5 1 -5 -6 -1 -10 6 -10 11 -1 22 6 8 14 14 16 14 3 0 0 -6
-6 -13z m312 -32 c-9 -19 -18 -33 -21 -31 -4 5 26 66 33 66 3 0 -3 -16 -12
-35z m-5258 5 c-3 -5 -2 -10 4 -10 5 0 13 5 16 11 5 7 15 5 31 -6 13 -8 24
-13 24 -11 0 2 16 -10 35 -27 29 -25 33 -33 22 -46 -10 -12 -9 -13 2 -6 10 6
12 4 6 -4 -4 -7 -15 -11 -24 -8 -10 2 -26 -2 -36 -9 -12 -9 -23 -10 -36 -4
-12 7 -20 6 -25 -2 -5 -7 -3 -8 6 -3 9 5 11 4 6 -4 -6 -9 -11 -9 -22 0 -15 12
-19 23 -6 15 5 -3 9 2 9 11 0 12 -5 11 -19 -7 -10 -12 -18 -16 -18 -9 0 8 -6
5 -14 -6 -18 -25 -106 -29 -107 -5 0 10 -2 11 -6 3 -2 -7 -8 -13 -13 -13 -14
0 -5 28 17 54 12 13 19 27 16 30 -3 3 6 8 21 12 14 3 26 10 26 16 0 5 5 6 10
3 6 -3 10 -2 10 4 0 5 9 8 19 6 11 -2 25 3 32 11 13 16 23 19 14 4z m5068 -55
c-3 -9 -8 -14 -10 -11 -3 3 -2 9 2 15 9 16 15 13 8 -4z m153 -33 c-9 -17 -20
-33 -25 -36 -5 -4 0 12 12 33 25 46 36 48 13 3z m-76 18 c-8 -5 -22 -10 -30
-10 -13 0 -13 1 0 10 8 5 22 10 30 10 13 0 13 -1 0 -10z m-3695 -36 c17 -9 50
-18 73 -20 24 -2 65 -10 90 -18 26 -8 148 -29 272 -46 344 -48 787 -142 1055
-224 138 -42 361 -144 406 -187 58 -55 31 -64 -58 -19 -102 50 -333 141 -438
171 -284 83 -754 179 -878 179 -32 0 -3 -26 59 -51 30 -13 54 -26 54 -31 0 -4
6 -8 13 -8 7 0 28 -11 46 -25 19 -13 55 -27 80 -31 68 -10 73 -11 131 -28 36
-11 94 -16 174 -16 136 -1 163 -8 263 -68 49 -30 94 -47 163 -62 173 -39 415
-147 449 -203 12 -19 11 -19 -26 -12 -21 3 -67 19 -103 35 -89 38 -303 105
-434 135 -60 13 -116 30 -125 38 -24 21 -52 29 -65 18 -6 -5 -32 -12 -57 -15
-57 -8 -146 -34 -153 -45 -8 -12 65 -23 164 -26 47 -1 99 -5 117 -9 20 -5 34
-3 38 4 18 29 163 -13 612 -179 100 -36 186 -90 233 -144 62 -71 75 -107 40
-107 -28 0 -25 -11 14 -60 18 -23 32 -50 29 -59 -2 -10 3 -23 11 -30 9 -8 16
-19 16 -27 0 -7 23 -50 50 -95 28 -45 50 -88 50 -96 0 -7 13 -41 30 -76 30
-65 58 -151 80 -249 9 -40 19 -59 32 -63 19 -7 24 -35 9 -50 -6 -6 -6 -41 0
-92 10 -79 9 -85 -27 -209 -30 -99 -65 -181 -161 -373 -132 -266 -265 -510
-315 -580 -17 -24 -44 -67 -59 -95 -16 -28 -29 -45 -29 -38 0 7 -4 11 -10 7
-5 -3 -7 -13 -4 -23 5 -13 4 -14 -4 -3 -11 16 -3 31 121 241 103 173 117 200
258 480 151 301 181 387 187 537 9 240 -93 534 -264 763 -39 52 -95 120 -125
150 -120 123 -362 307 -391 298 -5 -2 26 -26 69 -53 84 -53 248 -205 312 -289
29 -37 39 -58 35 -74 -4 -14 4 -39 25 -72 17 -27 28 -50 25 -50 -3 0 8 -12 25
-26 17 -14 31 -34 31 -44 0 -10 4 -21 9 -24 14 -9 21 -47 8 -45 -26 3 -36 -2
-42 -21 -3 -11 -9 -19 -13 -18 -13 4 -52 -13 -52 -23 0 -20 -16 -8 -29 22 -12
27 -15 29 -23 15 -5 -9 -6 -20 -3 -25 3 -6 -2 -14 -11 -19 -14 -8 -14 -13 5
-50 33 -65 45 -135 30 -179 -15 -48 -50 -100 -81 -121 -19 -14 -21 -14 -11 -1
7 9 10 19 7 22 -4 4 -1 20 5 36 7 16 11 39 9 52 -3 21 -5 19 -30 -17 -25 -40
-47 -48 -76 -30 -6 4 -17 4 -23 0 -13 -8 4 27 33 68 24 34 14 57 -13 32 -10
-9 -21 -24 -24 -34 -3 -9 -12 -17 -20 -17 -14 0 -16 22 -2 43 4 8 -21 14 -83
18 -78 7 -90 10 -90 26 0 11 11 22 30 29 36 12 39 20 5 13 -29 -5 -32 11 -13
65 6 18 9 35 6 39 -12 11 -67 -29 -85 -63 -10 -18 -21 -33 -25 -33 -24 0 6 91
49 149 17 23 17 24 -7 16 -43 -14 -80 -14 -95 2 -8 8 -15 12 -15 8 0 -4 -7 1
-16 9 -8 9 -19 14 -23 12 -18 -11 -7 40 15 73 13 19 24 41 24 47 0 6 9 32 20
58 16 36 26 46 44 46 31 0 38 21 20 56 -31 61 -41 61 -49 -1 -5 -42 -14 -65
-37 -91 -42 -48 -115 -83 -185 -89 -62 -5 -62 -1 -1 10 21 3 51 17 67 31 29
24 30 26 15 50 -11 17 -26 24 -46 24 -26 0 -29 2 -18 15 11 13 9 20 -10 40
-13 14 -26 23 -28 20 -3 -2 -21 8 -41 24 -20 15 -56 37 -81 48 -56 25 -88 54
-82 73 3 12 1 12 -13 -2 -16 -15 -16 -19 -4 -34 12 -16 12 -17 -3 -11 -23 8
-37 -18 -32 -63 2 -27 1 -30 -6 -15 -21 49 4 151 51 201 19 20 19 21 -4 55
-12 18 -33 39 -45 45 -12 6 -19 14 -15 17 3 4 1 7 -6 7 -6 0 -11 -8 -9 -17 2
-14 -3 -17 -26 -15 -18 3 -26 0 -22 -7 9 -15 4 -14 -30 4 -25 13 -20 21 9 16
4 0 7 4 7 10 0 6 8 9 18 7 11 -3 19 0 19 8 0 17 1 17 -43 -3 -28 -14 -38 -15
-41 -5 -3 6 -14 12 -24 12 -11 0 -17 -5 -14 -10 4 -6 10 -8 15 -5 5 3 14 -4
20 -15 15 -27 -13 -39 -39 -16 -10 9 -25 16 -33 16 -9 0 -22 8 -29 17 -13 15
-11 16 19 10 27 -6 32 -4 32 13 0 11 5 20 10 20 6 0 10 -4 10 -10 0 -18 22
-10 27 10 5 20 18 26 26 13 2 -5 3 -3 1 4 -1 6 22 21 52 33 30 13 53 24 51 26
-5 5 -147 -46 -212 -76 -75 -36 -248 -151 -297 -198 -60 -57 -57 -27 3 34 77
78 208 169 324 223 55 26 116 55 135 64 73 34 -24 8 -178 -48 -23 -8 -100 -48
-170 -89 -70 -40 -136 -76 -148 -80 -33 -10 -151 -134 -201 -210 -83 -128 -90
-140 -173 -284 -45 -78 -87 -145 -92 -149 -6 -3 -4 7 5 23 9 16 28 56 42 88
55 129 222 397 303 487 25 27 42 52 40 55 -3 2 -11 -2 -18 -11 -7 -8 -16 -15
-21 -15 -4 0 -25 -16 -46 -35 -20 -19 -40 -32 -43 -29 -3 3 3 11 13 18 9 7 17
18 17 24 0 19 81 130 107 147 l24 16 -27 21 c-47 37 -75 69 -69 79 4 5 -5 9
-20 9 -14 0 -34 5 -44 12 -15 9 -26 9 -45 0 -20 -9 -25 -9 -23 0 1 7 -3 12
-10 13 -6 0 -15 3 -18 7 -4 4 -16 3 -26 -3 -29 -15 -59 6 -59 41 0 17 -3 29
-7 28 -5 -2 -8 1 -8 7 0 21 34 10 40 -13 6 -23 7 -24 20 -6 12 17 11 20 -11
32 -13 7 -24 20 -24 29 0 13 -3 13 -15 3 -22 -18 -30 -5 -17 25 13 29 30 32
47 9 13 -19 37 -10 88 32 29 24 52 29 81 18 23 -9 20 -31 -5 -39 -11 -4 -18
-9 -16 -12 14 -13 46 11 52 37 4 18 14 31 23 31 9 1 33 3 52 4 80 4 95 7 80
12 -8 3 -26 14 -39 24 -13 11 -32 19 -42 19 -11 0 -19 5 -19 10 0 6 -8 10 -18
10 -10 0 -28 8 -42 17 -17 12 -25 13 -28 5 -2 -7 -8 -10 -13 -7 -8 6 -58 -22
-70 -39 -4 -5 -23 -6 -43 -2 -22 4 -36 3 -36 -3 0 -6 8 -8 18 -5 9 2 7 -1 -5
-7 -34 -18 -28 -30 12 -25 43 5 50 -4 24 -33 -16 -17 -30 -21 -64 -19 -24 2
-41 6 -39 10 5 8 -37 33 -48 30 -5 -1 -7 1 -5 6 4 12 -40 62 -48 54 -5 -4 -5
-2 -2 4 4 7 -3 24 -15 39 -20 25 -22 26 -34 10 -10 -13 -16 -14 -33 -5 -17 9
-22 8 -27 -5 -3 -8 -14 -15 -23 -15 -10 0 -23 -14 -31 -35 -8 -20 -20 -41 -28
-47 -9 -8 -10 -13 -2 -18 13 -8 -7 -60 -23 -60 -5 0 -7 -7 -4 -15 3 -7 -3 -24
-13 -37 -11 -13 -19 -17 -20 -10 0 7 -5 10 -11 6 -8 -5 -7 -9 3 -15 13 -7 15
-21 9 -64 -1 -5 -6 -3 -11 5 -8 13 -10 12 -10 -4 0 -16 -2 -17 -16 -5 -14 11
-18 11 -28 -1 -22 -28 -109 -73 -197 -103 -104 -35 -442 -67 -649 -60 -134 5
-150 6 -144 12 8 8 33 11 154 17 323 15 604 53 695 93 50 22 85 62 121 138 14
32 39 76 54 98 15 22 32 51 39 65 11 22 10 23 -2 8 -8 -10 -18 -14 -22 -10 -5
4 -5 1 -1 -5 4 -8 2 -13 -7 -13 -7 0 -20 -12 -28 -27 -8 -16 -27 -41 -44 -56
-43 -41 -184 -106 -241 -112 -27 -2 -67 -8 -89 -14 -109 -26 -645 -48 -645
-27 0 6 -5 4 -10 -4 -8 -13 -10 -12 -10 4 0 16 -2 17 -17 5 -20 -17 -16 -17
-36 -1 -9 8 -22 10 -28 6 -8 -5 -9 -3 -5 5 5 7 14 10 22 7 7 -3 16 -1 20 5 4
6 11 6 20 -2 12 -10 12 -8 1 13 -11 22 -12 116 -1 105 6 -5 12 -48 13 -83 1
-23 7 -33 21 -37 25 -6 44 16 35 43 -4 11 -2 20 4 20 6 0 11 -13 11 -28 0 -24
4 -28 23 -27 21 2 22 6 25 95 1 51 0 101 -4 109 -4 9 -6 20 -5 25 1 5 -5 4
-13 -4 -15 -11 -20 -7 -17 13 1 5 -3 6 -8 3 -5 -3 -7 -23 -5 -43 3 -32 2 -34
-6 -15 -12 28 -36 38 -54 22 -12 -9 -17 -7 -26 9 -6 12 -16 21 -23 21 -7 0 -6
-4 3 -10 9 -6 11 -10 3 -10 -7 0 -19 -12 -28 -27 -8 -16 -15 -21 -14 -13 2 23
-12 60 -23 60 -5 0 -7 4 -4 9 3 5 20 6 38 4 43 -6 66 -6 171 0 74 4 89 3 98
-11 10 -16 10 -15 5 1 -4 14 1 17 32 18 20 1 48 3 62 4 14 2 66 5 115 8 50 3
98 9 107 12 12 5 20 1 24 -9 3 -9 11 -16 16 -16 6 0 8 7 4 15 -3 10 1 15 12
16 9 0 26 2 37 4 11 2 36 6 55 9 60 9 164 47 186 67 11 10 25 19 32 19 6 0 39
27 74 61 l63 60 127 -6 c82 -4 129 -2 133 5 9 14 25 12 60 -6z m-2436 -11 c20
-14 31 -14 70 -5 66 17 162 17 191 2 22 -11 95 -65 110 -80 30 -30 158 -100
183 -100 12 0 16 -4 11 -12 -5 -10 -4 -10 5 -2 9 8 26 7 64 -3 29 -8 70 -16
92 -18 22 -2 54 -7 70 -10 17 -3 61 -7 98 -9 75 -5 82 -8 74 -31 -8 -20 -22
-19 -44 3 -10 9 -17 16 -16 14 1 -2 -5 -19 -13 -37 -8 -19 -14 -48 -14 -65 0
-17 -4 -29 -8 -26 -5 3 -7 29 -4 59 5 59 -13 81 -43 51 -8 -9 -15 -11 -15 -5
0 20 -37 11 -52 -11 l-15 -22 1 24 c1 21 -4 25 -29 25 -16 0 -36 4 -44 9 -9 6
-18 3 -27 -8 -11 -16 -13 -16 -19 4 -5 15 -13 20 -26 17 -10 -3 -22 -1 -25 4
-9 15 -36 10 -50 -8 -12 -17 -13 -16 -14 5 0 15 -6 22 -18 22 -11 0 -24 -10
-30 -22 -10 -22 -11 -21 -11 9 -1 35 -18 53 -32 32 -7 -11 -10 -9 -15 9 -7 24
-39 30 -47 10 -3 -7 -6 -3 -6 9 -1 29 -17 38 -31 16 -9 -15 -10 -13 -8 12 3
25 0 30 -19 29 -16 0 -23 5 -23 18 0 32 -26 19 -48 -24 -24 -49 -36 -131 -19
-125 12 4 20 17 38 65 6 18 13 31 15 29 2 -2 -6 -29 -17 -61 -12 -31 -18 -65
-14 -74 6 -15 8 -15 25 6 20 24 35 14 25 -17 -3 -10 1 -24 10 -31 12 -10 15
-10 15 3 0 8 7 20 15 27 13 11 13 8 4 -20 -15 -42 7 -61 33 -30 18 22 32 12
22 -15 -4 -10 -1 -21 7 -26 21 -13 29 -11 29 10 0 11 5 23 10 26 6 4 7 11 4
17 -4 6 -2 8 4 4 7 -4 8 -17 2 -36 -11 -37 15 -59 38 -32 7 10 10 11 7 4 -8
-16 28 -53 41 -44 5 4 11 18 12 32 6 38 12 37 12 -1 0 -34 1 -35 34 -31 18 2
37 -1 40 -7 5 -8 13 -8 26 -1 13 7 21 7 26 -2 4 -7 3 -8 -4 -4 -7 4 -12 0 -13
-11 0 -11 -3 -13 -6 -5 -4 10 -9 9 -19 -5 -13 -17 -14 -17 -7 1 5 15 3 17 -8
11 -13 -9 -39 -9 -84 0 -11 2 -26 4 -33 4 -8 1 -10 6 -6 14 6 9 4 9 -7 1 -18
-15 -48 -10 -134 21 -78 29 -100 45 -165 125 -120 149 -152 181 -166 169 -8
-6 -14 -7 -14 -2 0 5 -15 34 -34 65 -24 40 -31 59 -23 67 15 15 29 14 56 -6z
m6031 11 c0 -8 -19 -13 -24 -6 -3 5 1 9 9 9 8 0 15 -2 15 -3z m-6916 -69 c7
-19 -16 -29 -109 -45 -115 -20 -302 -66 -423 -104 -63 -20 -118 -36 -123 -36
-13 0 -11 36 4 48 36 29 294 102 482 136 110 20 161 20 169 1z m4296 -10 c197
-32 443 -108 492 -152 16 -14 26 -53 14 -53 -2 0 -55 16 -118 36 -145 45 -315
87 -448 109 -140 23 -132 19 -118 50 14 30 40 32 178 10z m-3850 -29 c0 -6 4
-5 9 2 4 8 12 14 16 14 4 0 12 -6 16 -14 6 -9 9 -9 9 -1 0 6 9 11 20 10 25 -2
9 -19 -22 -24 -25 -4 -50 -23 -30 -23 7 0 12 -13 12 -30 0 -35 -24 -50 -46
-29 -11 12 -11 18 0 40 8 16 10 32 5 40 -7 12 -9 11 -9 -1 0 -13 -2 -13 -9 0
-6 8 -8 17 -6 20 7 11 35 7 35 -4z m5754 -21 c-10 -8 -23 -15 -29 -15 -14 0
-65 -45 -65 -57 0 -15 -42 -50 -72 -62 -16 -6 -28 -7 -28 -3 0 11 91 87 145
121 50 32 85 43 49 16z m864 3 c-2 -7 3 -12 10 -10 8 1 11 -2 7 -8 -5 -8 -11
-8 -21 1 -7 6 -11 15 -8 20 8 13 14 11 12 -3z m-6483 -28 c-17 -19 -41 -18
-29 1 3 5 10 7 15 4 5 -4 9 -1 9 4 0 6 5 11 12 11 6 0 3 -8 -7 -20z m145 -42
c0 -31 -33 -39 -68 -16 -26 16 -30 23 -21 34 6 8 8 14 3 15 -5 1 2 4 16 8 29
9 69 -15 70 -41z m-440 12 c0 -5 -7 -10 -15 -10 -8 0 -25 -16 -37 -35 -22 -33
-48 -47 -48 -25 0 6 4 10 9 10 5 0 7 8 4 18 -6 23 25 52 36 33 6 -9 11 -8 21
4 14 17 30 20 30 5z m902 -27 c-3 -16 -7 -22 -10 -15 -4 13 4 42 11 42 2 0 2
-12 -1 -27z m2102 -74 c-7 -13 -34 -11 -34 2 0 5 -4 8 -9 4 -16 -9 -23 14 -9
29 11 12 16 11 35 -6 12 -12 20 -25 17 -29z m-2514 17 c0 -18 -42 -55 -56 -49
-17 6 -18 35 -2 51 13 13 58 12 58 -2z m2436 -77 c-6 -17 -12 -25 -14 -19 -3
7 -13 4 -26 -9 l-21 -20 -1 40 c0 21 3 34 7 27 4 -6 14 -8 24 -5 9 4 14 11 11
16 -8 12 17 21 25 8 4 -5 1 -22 -5 -38z m-1369 19 c-3 -8 -6 -5 -6 6 -1 11 2
17 5 13 3 -3 4 -12 1 -19z m4272 15 c23 -6 23 -7 5 -14 -10 -4 -39 -8 -64 -7
l-45 0 30 13 c35 16 41 17 74 8z m-2745 -53 c35 -36 32 -43 -11 -25 -22 9 -33
21 -33 35 0 27 10 25 44 -10z m-3050 -21 c39 -23 41 -26 26 -49 -8 -12 -11
-12 -27 2 -13 12 -23 14 -36 7 -21 -12 -41 0 -44 26 -3 39 30 44 81 14z m5556
11 c11 -7 11 -10 2 -10 -26 0 -123 -71 -133 -98 -33 -82 -44 -90 -54 -42 -11
49 29 99 110 140 45 23 54 24 75 10z m-2616 -6 c12 -5 13 -9 3 -19 -9 -9 -14
-10 -19 -1 -16 23 -10 30 16 20z m-3429 -25 c5 -5 -5 -9 -27 -9 -43 0 -68 8
-68 22 0 12 80 1 95 -13z m644 7 c6 -8 25 -20 42 -26 40 -17 22 -28 -42 -25
-50 2 -65 14 -33 25 13 5 14 9 6 14 -13 8 -7 26 7 26 5 0 14 -6 20 -14z m-614
-16 c3 -5 1 -10 -4 -10 -6 0 -11 5 -11 10 0 6 2 10 4 10 3 0 8 -4 11 -10z
m538 -9 c3 -14 -1 -18 -17 -16 -32 4 -32 5 -12 20 24 18 23 19 29 -4z m-465
-11 c9 -5 29 -14 45 -20 36 -13 34 -26 -4 -34 -35 -7 -69 8 -69 29 0 8 -5 15
-11 15 -5 0 -7 5 -4 10 8 13 21 13 43 0z m3272 0 c0 -5 -2 -10 -4 -10 -3 0 -8
5 -11 10 -3 6 -1 10 4 10 6 0 11 -4 11 -10z m-3585 -10 c3 -6 -1 -7 -9 -4 -18
7 -21 14 -7 14 6 0 13 -4 16 -10z m1107 3 c-10 -4 -9 -8 5 -19 17 -12 16 -15
-12 -38 -18 -14 -40 -23 -55 -21 -14 2 -30 -1 -36 -6 -6 -5 -18 -3 -29 4 -16
13 -14 15 21 36 21 13 48 25 59 27 11 2 21 8 23 14 2 5 11 10 20 9 12 0 13 -2
4 -6z m2529 -26 c-10 -9 -11 -8 -5 6 3 10 9 15 12 12 3 -3 0 -11 -7 -18z m187
-35 c2 -7 -3 -15 -12 -18 -19 -7 -81 49 -72 65 8 12 77 -27 84 -47z m-1772 15
c8 3 14 1 14 -5 0 -10 -110 -6 -120 5 -3 3 14 3 38 0 30 -4 40 -2 36 6 -5 9
-4 9 6 0 7 -6 19 -9 26 -6z m1512 -1 c-7 -8 -15 -12 -17 -11 -5 6 10 25 20 25
5 0 4 -6 -3 -14z m-1423 -6 c4 -6 12 -7 18 -4 7 4 10 5 7 1 -3 -3 -9 -6 -15
-7 -5 -1 -16 -7 -23 -13 -10 -8 -12 -7 -10 4 2 9 -5 13 -19 12 -13 -2 -23 1
-23 5 0 12 58 14 65 2z m51 -5 c-3 -8 2 -19 12 -24 9 -6 12 -11 7 -11 -17 0
-34 21 -28 36 3 8 7 14 10 14 3 0 3 -7 -1 -15z m48 -17 c-3 -4 -11 -5 -19 -1
-21 7 -19 12 4 10 11 0 18 -5 15 -9z m1296 -17 c0 -14 -18 -23 -30 -16 -6 4
-8 11 -5 16 8 12 35 12 35 0z m-122 -42 c-12 -18 -151 -104 -170 -104 -5 0 -8
-4 -9 -10 -1 -15 -41 -27 -53 -15 -7 7 -5 10 6 10 8 0 21 7 29 16 7 9 42 31
78 49 36 18 75 42 85 54 26 29 51 29 34 0z m57 -29 c-1 -16 1 -27 6 -25 17 11
17 -12 -1 -34 -12 -17 -23 -22 -36 -17 -18 7 -18 8 -2 20 15 11 15 13 1 22
-14 9 -14 11 1 26 9 9 16 21 16 27 0 6 4 11 9 11 5 0 7 -13 6 -30z m-438 -106
c-3 -3 -12 -4 -19 -1 -8 3 -5 6 6 6 11 1 17 -2 13 -5z m760 -33 c-3 -16 -24
-69 -45 -117 -22 -49 -48 -109 -58 -134 -26 -65 -128 -264 -152 -297 -27 -38
-105 -80 -195 -104 -39 -11 -114 -36 -164 -55 -118 -45 -141 -71 -224 -252
-34 -75 -86 -185 -115 -245 -29 -59 -53 -111 -53 -114 0 -4 -5 -9 -11 -11 -6
-2 -3 13 8 34 46 90 102 215 108 241 3 15 12 37 19 49 7 11 15 31 17 45 2 13
9 23 16 22 6 -2 12 4 12 12 0 8 0 17 0 20 0 3 9 19 20 37 11 18 27 47 36 63
44 79 137 130 318 174 130 32 171 56 210 124 42 72 163 349 182 416 23 83 85
162 71 92z m-377 16 c0 -2 -19 -23 -41 -47 -34 -35 -40 -39 -34 -19 9 30 44
69 62 69 7 0 13 -2 13 -3z m166 -18 c9 -8 12 -36 5 -58 -3 -10 -61 54 -61 67
0 14 34 9 56 -9z m-2253 -4 c-3 -9 -8 -14 -10 -11 -3 3 -2 9 2 15 9 16 15 13
8 -4z m2622 -15 c-13 -14 -13 -19 -3 -23 10 -4 10 -6 0 -6 -16 -1 -26 24 -18
44 3 8 12 12 21 9 14 -6 14 -8 0 -24z m-1177 -20 c49 -33 67 -52 89 -98 25
-50 28 -68 28 -152 -1 -110 -21 -196 -68 -290 -25 -51 -42 -70 -81 -95 l-49
-30 -217 -3 c-197 -2 -219 0 -231 15 -12 16 -12 17 1 7 15 -12 114 -11 305 1
183 11 242 62 285 246 29 123 27 221 -5 286 -24 47 -83 111 -131 140 -16 10
-16 12 -3 12 9 1 44 -17 77 -39z m101 -29 c29 -36 42 -77 22 -69 -5 2 -31 33
-59 71 -47 61 -49 66 -23 52 16 -8 43 -32 60 -54z m-1739 -26 c34 -98 33 -104
-4 -25 -20 41 -36 82 -36 90 0 27 19 -4 40 -65z m170 69 c0 -8 -19 -13 -24 -6
-3 5 1 9 9 9 8 0 15 -2 15 -3z m2610 -24 c0 -5 -5 -10 -11 -10 -19 0 11 -30
30 -30 13 -1 13 -2 -2 -11 -14 -8 -22 -8 -30 0 -16 16 -17 61 0 61 7 0 13 -4
13 -10z m621 -10 c14 -11 19 -20 12 -21 -7 -1 -19 -2 -25 -3 -7 -1 -12 -8 -10
-15 1 -7 -3 -11 -10 -8 -7 2 -12 9 -11 14 1 5 -19 -1 -45 -14 -26 -13 -46 -28
-44 -34 1 -5 -5 -9 -13 -9 -23 0 -18 25 12 60 26 31 27 31 34 11 10 -24 39
-18 39 8 0 36 26 41 61 11z m115 -17 c-10 -10 -19 5 -10 18 6 11 8 11 12 0 2
-7 1 -15 -2 -18z m152 -3 c3 -17 -6 -33 -34 -56 l-38 -33 -11 22 c-6 12 -19
21 -28 21 -9 -1 -17 2 -17 7 0 5 5 9 11 9 6 0 8 9 4 21 -5 15 -3 20 6 17 8 -3
15 -15 17 -27 3 -22 4 -22 23 -5 10 9 19 23 19 30 0 13 19 24 35 20 6 -1 12
-13 13 -26z m-2145 4 c45 -23 86 -63 108 -106 51 -100 -12 -350 -101 -402 -32
-19 -51 -21 -231 -21 -174 0 -199 2 -216 18 -11 9 -22 15 -25 11 -3 -3 -15 7
-26 21 -50 63 -101 273 -83 340 14 53 65 113 115 136 57 26 409 28 459 3z
m792 -25 c-21 -11 -40 -17 -42 -15 -2 1 6 15 18 29 17 23 24 25 41 16 20 -11
20 -12 -17 -30z m-1741 -5 c127 -43 165 -176 75 -259 -18 -17 -29 -24 -24 -16
5 9 3 12 -6 9 -8 -3 -13 -11 -11 -17 1 -7 -2 -9 -9 -6 -7 5 -4 14 10 29 34 36
49 86 38 126 -7 26 -11 31 -16 18 -3 -9 -19 -26 -35 -39 -28 -22 -28 -22 -17
-1 17 32 13 36 -16 17 -32 -21 -103 -32 -103 -16 0 6 7 7 17 4 12 -5 14 -3 8
8 -7 11 -5 11 10 -1 17 -14 18 -13 12 4 -6 16 -5 17 7 7 11 -9 16 -9 22 0 4 8
3 9 -4 5 -8 -5 -12 1 -12 16 0 19 2 20 11 8 8 -12 10 -12 7 5 -4 23 -38 34
-38 11 0 -8 -4 -17 -8 -20 -5 -3 -8 8 -8 24 0 32 26 45 74 35 l27 -6 -25 14
c-28 17 -75 22 -105 12 -23 -7 -35 -7 -35 0 0 3 2 4 5 3 2 -2 10 5 17 14 11
14 30 21 74 27 6 0 32 -6 58 -15z m1569 3 c29 -13 105 -86 108 -105 10 -67 -3
-113 -45 -160 -50 -57 -106 -63 -168 -21 -29 20 -34 30 -33 57 1 30 -1 33 -23
27 -15 -4 -21 -2 -17 4 3 7 0 8 -9 5 -23 -9 -20 23 4 69 25 45 25 54 3 36 -33
-26 -63 -40 -63 -29 0 27 33 70 76 99 53 35 111 41 167 18z m608 0 c0 -3 4
-20 9 -37 6 -20 5 -32 -3 -36 -7 -4 -9 -4 -5 1 4 4 1 14 -7 21 -17 17 -29 18
-19 2 4 -6 3 -8 -4 -5 -11 7 -10 20 3 50 7 17 27 20 26 4z m774 -46 c-3 -6
-11 -11 -17 -11 -6 0 -6 6 2 15 14 17 26 13 15 -4z m-1065 -1 c0 -5 -8 -10
-17 -10 -15 0 -16 2 -3 10 19 12 20 12 20 0z m983 -33 c-3 -5 -11 -6 -19 -3
-8 3 -13 2 -13 -2 3 -21 -4 -33 -30 -51 -26 -19 -29 -19 -26 -4 1 10 8 17 14
16 6 -2 10 0 9 5 -3 8 32 64 47 74 11 8 26 -22 18 -35z m37 12 c0 -14 -17 -10
-23 5 -4 10 -1 13 9 9 7 -3 14 -9 14 -14z m-686 -31 c-10 -13 -23 -26 -28 -29
-5 -4 -5 -12 -2 -18 4 -7 2 -10 -5 -9 -7 2 -13 -3 -14 -11 0 -16 -45 -23 -45
-8 0 6 -3 7 -6 4 -8 -8 -44 11 -44 23 0 13 30 40 45 40 8 0 21 -12 28 -26 l14
-27 23 42 c13 22 30 41 38 41 12 0 11 -5 -4 -22z m409 -2 c24 -24 24 -24 4
-30 -29 -7 -39 2 -31 27 7 22 6 22 -15 3 -11 -11 -19 -22 -16 -24 3 -3 -1 -15
-9 -28 -19 -27 -8 -41 11 -14 8 11 24 20 36 19 l22 0 -22 -16 c-13 -8 -23 -22
-23 -30 0 -10 -7 -14 -20 -10 -10 3 -20 1 -22 -4 -2 -6 -12 -4 -22 4 -16 12
-17 17 -6 38 10 19 77 86 87 89 1 0 13 -11 26 -24z m-4143 2 c0 -4 6 -5 13 -2
16 6 120 -62 171 -112 51 -51 111 -143 130 -202 23 -71 32 -162 15 -162 -10 0
-10 -3 -1 -12 18 -18 14 -27 -9 -23 -25 5 -38 15 -20 15 7 0 9 5 6 10 -4 6
-10 8 -15 5 -10 -6 -20 29 -20 73 0 17 -4 32 -9 32 -5 0 -12 17 -16 38 -13 68
-67 161 -129 220 -32 31 -70 68 -84 82 -14 14 -22 18 -18 10 6 -12 5 -12 -6 1
-7 8 -22 21 -33 27 -19 11 -19 11 3 9 12 -1 22 -5 22 -9z m990 -11 c0 -8 27
-67 60 -132 73 -145 75 -174 3 -37 -58 109 -87 182 -73 182 6 0 10 -6 10 -13z
m2800 9 c0 -2 -8 -10 -17 -17 -16 -13 -17 -12 -4 4 13 16 21 21 21 13z m-3527
-21 c12 -11 17 -12 20 -2 3 9 8 9 18 -2 12 -12 12 -13 0 -6 -10 6 -12 4 -6 -4
4 -7 16 -11 26 -8 10 3 22 0 26 -5 3 -7 1 -8 -5 -4 -7 4 -12 5 -12 2 0 -6 58
-38 62 -34 7 5 117 -114 123 -132 3 -11 10 -20 14 -20 4 0 13 -16 21 -35 7
-19 18 -31 23 -28 6 3 7 2 4 -4 -3 -5 1 -22 9 -37 16 -31 19 -96 5 -96 -5 0
-11 6 -14 13 -2 6 -3 -7 -1 -30 1 -24 -2 -43 -7 -43 -5 0 -9 -6 -9 -14 0 -7
-8 -20 -17 -27 -9 -8 -14 -9 -10 -2 4 6 4 13 0 16 -5 2 -3 3 3 1 6 -1 11 4 11
10 0 8 -10 12 -24 10 -13 -1 -21 2 -17 7 3 5 0 9 -6 9 -6 0 -8 4 -5 10 3 5 -5
20 -18 33 -13 14 -28 47 -35 79 -17 72 -61 164 -114 235 -24 32 -48 67 -54 78
-5 11 -18 19 -27 19 -9 -1 -17 4 -17 12 0 18 15 18 33 -1z m3077 -12 c0 -16 4
-35 10 -43 10 -16 -7 -43 -22 -34 -13 8 -32 56 -29 74 3 15 19 30 34 30 4 0 7
-12 7 -27z m-1544 -73 c3 -36 8 -68 10 -72 3 -4 0 -8 -5 -8 -6 0 -11 8 -12 18
0 9 -3 44 -5 77 -3 33 -3 57 0 54 3 -3 8 -34 12 -69z m-1006 -72 c0 -25 -27 1
-30 30 -1 4 -8 10 -15 15 -8 4 -11 15 -8 24 5 12 3 14 -7 8 -9 -5 -11 -4 -6 3
4 7 2 12 -4 12 -6 0 -8 5 -4 11 6 11 74 -84 74 -103z m3570 102 c0 -5 -4 -10
-10 -10 -5 0 -10 5 -10 10 0 6 5 10 10 10 6 0 10 -4 10 -10z m-788 -52 c-7 -7
-12 -8 -12 -2 0 14 12 26 19 19 2 -3 -1 -11 -7 -17z m779 5 c12 -16 12 -17 -1
-7 -8 6 -22 14 -30 17 -13 5 -12 6 1 6 9 1 23 -7 30 -16z m-38 -15 c15 -6 27
-15 27 -20 0 -15 -49 0 -79 24 l-26 20 25 -6 c14 -4 37 -12 53 -18z m-181 -20
c-7 -7 -12 -8 -12 -2 0 14 12 26 19 19 2 -3 -1 -11 -7 -17z m-584 -12 c-2 -1
-12 -8 -22 -16 -18 -14 -18 -14 -6 7 8 12 18 19 23 16 4 -3 7 -6 5 -7z m659
-41 c-8 -19 -47 -20 -47 0 0 18 20 20 20 3 0 -7 5 -5 11 5 12 21 24 15 16 -8z
m-3367 -50 c18 -36 30 -68 27 -72 -4 -3 -7 -1 -7 6 0 7 -7 19 -15 28 -8 8 -13
19 -10 24 4 5 1 9 -4 9 -6 0 -11 9 -11 19 0 10 -7 22 -16 25 -12 5 -12 26 0
26 2 0 18 -29 36 -65z m978 32 c6 -34 7 -39 25 -79 9 -21 24 -55 33 -75 l15
-38 -25 30 c-29 35 -66 130 -66 170 0 32 12 26 18 -8z m1462 29 c0 -2 -8 -10
-17 -17 -16 -13 -17 -12 -4 4 13 16 21 21 21 13z m260 -48 c0 -26 -13 -16 -17
13 -2 12 1 18 7 14 5 -3 10 -16 10 -27z m654 4 c3 -5 -1 -9 -9 -9 -8 0 -12 4
-9 9 3 4 7 8 9 8 2 0 6 -4 9 -8z m-774 -37 c-7 -8 -9 -15 -4 -15 4 0 -2 -10
-14 -22 -11 -13 -20 -25 -19 -28 5 -13 -62 -91 -97 -114 -37 -24 -119 -54
-246 -91 -102 -29 -36 3 80 39 149 46 183 69 248 167 29 43 55 79 59 79 3 0 0
-7 -7 -15z m-2321 -47 c18 -27 30 -48 27 -48 -7 0 -66 83 -66 94 0 11 -1 13
39 -46z m37 20 c0 -10 -1 -18 -3 -18 -1 0 -7 8 -12 18 -7 13 -6 19 2 19 7 0
13 -9 13 -19z m-95 -5 c12 -15 12 -16 -4 -10 -10 4 -23 7 -28 7 -6 0 -7 5 -4
10 9 15 21 12 36 -7z m2419 7 c0 -5 -5 -10 -11 -10 -5 0 -7 5 -4 10 3 6 8 10
11 10 2 0 4 -4 4 -10z m-3317 -69 c3 -18 2 -30 -2 -25 -5 5 -11 27 -15 49 -4
26 -3 35 3 25 5 -8 11 -30 14 -49z m1537 44 c11 -14 10 -19 -7 -37 -28 -28
-59 -17 -59 20 0 23 4 28 27 30 14 1 32 -5 39 -13z m1240 -17 c29 -48 26 -57
-16 -52 -69 9 -116 64 -66 77 45 12 63 6 82 -25z m-2033 -10 c-3 -8 -6 -5 -6
6 -1 11 2 17 5 13 3 -3 4 -12 1 -19z m2558 -18 c-3 -5 -14 -10 -23 -9 -14 0
-13 2 3 9 27 11 27 11 20 0z m123 -39 c-7 -12 -16 -21 -21 -21 -4 0 0 11 10
24 22 29 30 27 11 -3z m-2640 -6 c-3 -3 -9 2 -12 12 -6 14 -5 15 5 6 7 -7 10
-15 7 -18z m237 5 c10 -11 16 -20 13 -20 -3 0 -13 9 -23 20 -10 11 -16 20 -13
20 3 0 13 -9 23 -20z m3202 -11 c78 -29 145 -98 169 -172 29 -92 -2 -194 -76
-255 -36 -28 -34 -7 3 37 34 40 34 44 -1 80 -20 22 -32 27 -42 21 -22 -14 -28
-12 -40 10 -9 17 -7 24 12 41 13 11 18 18 11 15 -17 -9 -27 32 -13 52 7 9 -3
0 -22 -22 -31 -34 -37 -37 -56 -27 -12 7 -22 14 -22 17 0 3 4 2 10 -1 5 -3 7
0 4 9 -8 21 -32 9 -50 -26 -27 -52 -34 -18 -8 40 14 31 28 62 31 68 9 23 -19
26 -41 5 -28 -27 -37 -26 -59 4 -16 22 -16 26 -3 31 25 10 18 24 -10 22 -14
-2 -44 -18 -67 -38 l-41 -35 19 33 c24 40 79 79 137 97 61 19 89 18 155 -6z
m-3002 -9 c8 -13 -5 -13 -25 0 -13 8 -13 10 2 10 9 0 20 -4 23 -10z m-415 -10
c0 -5 -2 -10 -4 -10 -3 0 -8 5 -11 10 -3 6 -1 10 4 10 6 0 11 -4 11 -10z m513
-10 c57 -12 141 -64 179 -108 24 -28 108 -189 108 -206 0 -3 8 -25 19 -49 51
-114 59 -134 66 -157 4 -14 20 -53 36 -88 16 -35 29 -66 29 -70 0 -4 6 -18 13
-32 20 -39 28 -62 18 -56 -5 3 -36 72 -70 153 -202 483 -216 508 -330 565 -40
20 -91 40 -112 43 -22 4 -39 11 -39 17 0 5 8 7 18 4 9 -3 39 -10 65 -16z
m2055 -22 c-13 -18 -24 -35 -25 -37 -2 -2 -6 -1 -10 2 -5 6 44 67 54 67 2 0
-7 -15 -19 -32z m-2273 4 c-3 -3 -11 0 -18 7 -9 10 -8 11 6 5 10 -3 15 -9 12
-12z m4495 -18 c0 -8 5 -13 11 -11 6 1 14 -4 16 -11 3 -8 -1 -10 -14 -5 -16 6
-16 5 -5 -10 8 -9 23 -19 33 -22 14 -5 19 -14 17 -28 -2 -18 -10 -22 -43 -22
-38 0 -40 2 -41 30 0 17 -3 36 -7 42 -8 12 15 63 25 57 5 -3 8 -12 8 -20z
m-2276 -46 c-4 -7 -25 -38 -45 -69 -51 -74 -98 -180 -114 -255 -11 -55 -11
-72 7 -155 10 -52 17 -108 14 -126 -8 -52 -64 -160 -103 -198 -60 -58 -100
-67 -269 -63 -140 3 -152 5 -194 30 -70 41 -110 107 -104 175 2 34 22 102 34
118 4 6 24 51 45 100 87 212 202 415 237 415 5 0 -8 -20 -30 -45 -31 -35 -132
-218 -132 -239 0 -3 -22 -52 -49 -110 -86 -182 -91 -194 -91 -235 0 -44 17
-91 37 -104 8 -5 11 -12 8 -18 -4 -5 2 -12 12 -16 10 -4 33 -17 52 -30 32 -22
43 -23 193 -23 140 0 164 2 199 20 96 50 168 232 130 332 -19 51 -22 127 -6
186 18 71 102 245 140 290 27 32 43 43 29 20z m-1902 -75 c15 -15 53 -82 84
-148 31 -66 76 -161 99 -212 78 -165 90 -231 54 -311 -42 -95 -102 -121 -287
-122 -147 0 -175 7 -235 59 -34 31 -44 45 -88 133 -23 45 -24 96 -3 185 9 41
14 90 11 123 -4 41 -3 50 5 36 15 -27 13 -99 -6 -189 -19 -92 -14 -124 36
-207 40 -66 100 -110 165 -121 26 -4 98 -6 158 -5 152 4 188 22 234 113 40 80
30 124 -94 388 -102 219 -120 251 -169 300 -28 27 -38 40 -21 28 17 -12 42
-34 57 -50z m4118 32 c1 6 5 0 10 -13 6 -13 6 -32 0 -46 -12 -33 -30 -42 -30
-16 0 12 5 18 10 15 6 -3 10 3 10 14 0 11 -4 23 -10 26 -5 3 -10 14 -10 23 0
15 2 15 10 2 5 -8 10 -10 10 -5z m-4589 -47 c11 -14 19 -30 19 -34 0 -5 -11 8
-25 28 -14 20 -25 43 -24 50 0 9 2 8 6 -2 3 -8 14 -27 24 -42z m1443 -19 c35
-27 37 -77 4 -74 -13 1 -29 3 -36 4 -8 1 -11 8 -7 20 5 15 2 18 -13 14 -10 -2
-24 2 -31 10 -10 12 -8 18 11 31 29 21 40 20 72 -5z m-486 -2 c6 -6 13 -24 17
-40 6 -24 4 -27 -16 -27 -27 0 -89 40 -89 57 0 23 70 32 88 10z m-603 -30 c30
-43 21 -48 -73 -46 -81 1 -88 3 -89 22 -3 36 14 46 83 45 54 0 67 -4 79 -21z
m1770 -4 c9 -38 -23 -63 -79 -62 -33 0 -37 2 -21 10 15 6 6 8 -33 6 -56 -2
-57 -1 -42 37 9 26 26 30 126 34 38 2 43 -1 49 -25z m-2087 -18 c-3 -3 -9 2
-12 12 -6 14 -5 15 5 6 7 -7 10 -15 7 -18z m3180 0 c-3 -3 -9 2 -12 12 -6 14
-5 15 5 6 7 -7 10 -15 7 -18z m1432 -3 c0 -5 -12 -14 -27 -21 -21 -9 -28 -9
-34 1 -4 6 -5 16 -3 20 7 11 64 10 64 0z m-4592 -37 c-3 -3 -9 2 -12 12 -6 14
-5 15 5 6 7 -7 10 -15 7 -18z m230 -2 c-10 -2 -26 -2 -35 0 -10 3 -2 5 17 5
19 0 27 -2 18 -5z m4252 -13 c0 -5 -5 -10 -11 -10 -5 0 -7 5 -4 10 3 6 8 10
11 10 2 0 4 -4 4 -10z m106 -30 c-26 -30 -35 -76 -20 -98 18 -27 0 -40 -25
-18 -10 9 -25 16 -33 16 -18 0 -41 24 -31 33 3 4 14 7 23 7 9 0 27 11 40 25
l23 24 -29 12 c-17 7 -24 13 -16 16 7 3 18 0 25 -6 9 -7 16 -4 26 11 10 17 15
18 21 7 6 -8 4 -19 -4 -29z m-4568 -1 c-3 -8 -7 -3 -11 10 -4 17 -3 21 5 13 5
-5 8 -16 6 -23z m4686 -2 c10 -37 7 -60 -10 -78 -15 -16 -15 -20 0 -41 20 -28
21 -68 2 -68 -19 0 -46 38 -46 65 -1 19 -1 19 -15 1 -8 -11 -21 -16 -30 -12
-14 5 -14 9 0 43 16 39 30 53 54 53 10 0 12 9 7 34 -6 30 -4 34 13 29 10 -3
22 -15 25 -26z m-4664 -43 c0 -8 -4 -12 -10 -9 -5 3 -10 13 -10 21 0 8 5 12
10 9 6 -3 10 -13 10 -21z m1133 14 c57 -17 131 -94 152 -158 28 -85 3 -180
-64 -244 -17 -17 -31 -26 -31 -20 0 5 -5 2 -10 -6 -5 -8 -10 -10 -10 -4 0 6
12 21 26 35 34 32 64 92 63 126 l-1 28 -9 -31 c-11 -37 -33 -49 -52 -29 -11
11 -17 11 -28 2 -9 -8 -8 -5 2 8 8 11 16 34 17 50 1 25 0 27 -7 10 -8 -18 -10
-17 -24 15 -8 19 -16 29 -16 22 -1 -7 -6 -10 -11 -7 -7 4 -8 11 -1 18 5 7 12
30 15 52 l6 40 -15 -39 c-18 -48 -30 -61 -21 -24 3 15 2 30 -4 33 -5 3 -10 1
-10 -5 0 -19 -49 24 -59 53 -8 21 -7 26 2 21 8 -5 9 -4 2 4 -6 6 -25 12 -43
14 -34 2 -30 18 6 21 11 0 19 4 17 7 -2 4 -19 5 -37 4 -30 -3 -31 -3 -8 5 37
13 107 13 153 -1z m773 2 l55 0 -3 -32 -3 -33 -65 2 c-36 1 -77 2 -92 2 -16 1
-28 6 -28 11 0 20 50 62 66 56 9 -3 40 -6 70 -6z m-1576 -26 c6 -14 10 -29 10
-33 0 -4 -35 -6 -77 -5 -43 2 -86 3 -95 3 -18 1 -33 34 -23 51 3 5 44 10 91
10 82 0 85 -1 94 -26z m2410 -38 c0 -3 -4 -8 -10 -11 -5 -3 -10 -1 -10 4 0 6
5 11 10 11 6 0 10 -2 10 -4z m485 -6 c-3 -5 -12 -10 -18 -10 -7 0 -6 4 3 10
19 12 23 12 15 0z m-3415 -60 c0 -27 -3 -50 -7 -50 -5 0 -6 22 -5 50 5 65 12
65 12 0z m514 14 c22 -8 20 -31 -3 -44 -43 -23 -141 -2 -141 30 0 13 117 24
144 14z m1616 -18 c0 -19 -6 -24 -37 -30 -59 -9 -141 -7 -148 4 -3 6 -3 19 0
30 6 18 15 20 96 20 87 0 89 -1 89 -24z m420 -7 c0 -16 -4 -28 -9 -25 -8 5 -3
56 5 56 2 0 4 -14 4 -31z m1352 -23 c159 -77 205 -287 88 -404 -37 -37 -124
-82 -135 -70 -3 3 12 10 33 17 26 9 49 28 75 63 38 52 45 72 27 83 -5 3 -10
-1 -10 -10 0 -9 -4 -14 -9 -11 -5 4 -12 0 -14 -6 -4 -9 -8 -9 -14 -3 -10 13
-33 18 -33 7 0 -4 -9 -8 -20 -9 -25 -2 -25 -2 4 55 14 27 21 53 18 58 -8 12
-73 43 -114 55 -21 6 -28 5 -25 -4 2 -6 25 -18 51 -25 26 -8 46 -15 44 -18 -3
-2 -19 1 -38 6 -19 5 -36 8 -38 6 -5 -6 68 -26 95 -26 l23 0 -27 -45 c-28 -46
-46 -44 -36 5 4 24 1 28 -38 39 -24 7 -54 18 -68 24 -14 5 -35 10 -46 9 -16
-1 -17 0 -2 4 16 5 16 8 2 32 -8 15 -21 44 -29 64 -14 36 -14 38 12 58 l27 21
-32 -15 c-17 -9 -45 -32 -61 -52 l-31 -37 13 36 c28 81 94 119 201 114 41 -1
85 -10 107 -21z m-2637 -17 c-10 -15 -25 -10 -19 6 4 8 10 12 15 9 5 -3 7 -10
4 -15z m1278 -19 c-3 -11 -7 -20 -9 -20 -2 0 -4 9 -4 20 0 11 4 20 9 20 5 0 7
-9 4 -20z m507 -4 c0 -11 -19 -15 -25 -6 -3 5 1 10 9 10 9 0 16 -2 16 -4z
m-1721 -30 c11 -14 6 -15 -27 -7 -4 1 8 21 12 21 2 0 9 -6 15 -14z m731 -4 c0
-4 16 -6 35 -4 35 4 35 4 35 -35 0 -38 -1 -40 -30 -38 -16 1 -73 2 -125 3 -94
2 -95 2 -95 27 0 14 3 24 8 23 4 -1 23 2 42 6 l35 9 -30 7 c-22 6 -9 8 48 9
42 0 77 -3 77 -7z m-2036 -92 c3 -14 -3 -7 -13 15 -11 22 -20 49 -20 60 0 20
20 -25 33 -75z m533 79 c46 -1 52 -3 57 -25 4 -14 5 -28 2 -32 -2 -4 -55 -7
-118 -7 l-113 0 -3 26 c-4 33 28 49 83 43 22 -3 63 -5 92 -5z m2533 -9 c0 -5
-10 -10 -22 -9 -22 0 -22 1 -3 9 11 5 21 9 23 9 1 1 2 -3 2 -9z m-1759 -43
c-10 -9 -11 -8 -5 6 3 10 9 15 12 12 3 -3 0 -11 -7 -18z m-1421 -7 c-8 -5 -19
-10 -25 -10 -5 0 -3 5 5 10 8 5 20 10 25 10 6 0 3 -5 -5 -10z m1660 -25 c-7
-8 -9 -15 -4 -15 5 0 0 -7 -10 -15 -11 -8 -17 -18 -13 -21 7 -8 -18 -60 -34
-70 -7 -4 -6 3 2 17 7 13 13 29 14 35 0 18 39 84 48 84 5 0 4 -7 -3 -15z m895
-54 c-21 -43 -29 -39 -8 4 9 19 18 33 21 31 2 -2 -4 -18 -13 -35z m2579 8 c-2
-31 -70 -134 -79 -119 -4 6 -1 17 5 25 7 8 10 15 7 15 -3 0 -1 13 4 30 6 16
15 27 20 24 5 -3 10 1 11 8 0 7 2 18 3 23 2 6 3 14 4 18 3 20 26 -2 25 -24z
m-4949 -88 c30 -61 69 -127 86 -148 28 -35 28 -34 -8 4 -31 33 -143 227 -143
248 0 18 17 -9 65 -104z m525 69 c16 -16 18 -25 10 -40 -10 -18 -21 -20 -120
-20 -59 0 -115 3 -123 6 -14 5 -14 20 -1 62 2 8 33 12 109 12 92 0 107 -2 125
-20z m1515 -20 l0 -35 -133 -3 -133 -3 7 28 c3 15 7 34 10 41 3 10 33 12 126
10 l123 -3 0 -35z m2594 -6 c-15 -18 -22 -13 -13 10 3 9 10 13 16 10 5 -3 4
-12 -3 -20z m-3739 -71 c0 -4 -11 9 -25 29 -14 20 -25 40 -25 45 0 4 11 -9 25
-29 14 -20 25 -40 25 -45z m1435 37 c-9 -16 -18 -30 -21 -30 -2 0 2 14 11 30
9 17 18 30 21 30 2 0 -2 -13 -11 -30z m2299 16 c19 7 22 -12 4 -20 -10 -5 -10
-7 0 -12 17 -8 15 -24 -3 -24 -12 0 -13 -4 -5 -19 12 -24 13 -34 1 -27 -8 5
-17 -13 -26 -52 -7 -26 -16 -26 -80 6 -47 23 -65 37 -65 51 0 11 5 23 10 26 6
4 10 3 9 -2 -5 -26 4 -24 23 7 22 34 24 40 27 59 1 13 52 19 73 9 9 -4 24 -5
32 -2z m-129 -36 c-3 -5 -12 -10 -18 -10 -7 0 -6 4 3 10 19 12 23 12 15 0z
m-2934 -52 l23 -33 -25 23 c-14 12 -29 19 -33 15 -4 -4 -4 0 0 10 8 23 9 22
35 -15z m699 -33 c-61 -79 -70 -79 -13 -1 26 36 49 63 51 61 3 -3 -14 -29 -38
-60z m730 41 c0 -3 -4 -8 -10 -11 -5 -3 -10 -1 -10 4 0 6 5 11 10 11 6 0 10
-2 10 -4z m-1410 -82 c0 -2 -9 0 -20 6 -11 6 -20 13 -20 16 0 2 9 0 20 -6 11
-6 20 -13 20 -16z m2870 -24 c0 -5 -2 -10 -4 -10 -3 0 -8 5 -11 10 -3 6 -1 10
4 10 6 0 11 -4 11 -10z m-1967 -13 c-4 -6 -1 -7 8 -1 16 10 99 14 99 5 0 -3
17 -6 38 -7 133 -3 264 -56 413 -165 88 -65 219 -222 224 -268 1 -9 5 -24 9
-33 3 -10 9 -26 12 -35 11 -30 13 -74 3 -68 -5 4 -9 -3 -9 -14 0 -11 -5 -23
-11 -26 -6 -4 -8 -13 -5 -21 3 -8 0 -13 -6 -11 -6 1 -23 37 -38 79 -100 283
-327 467 -615 498 -53 6 -118 7 -158 2 -37 -5 -70 -5 -73 -1 -3 6 -33 5 -41
-1 -2 -2 -6 -3 -10 -4 -5 -1 -15 -5 -23 -10 -9 -6 -8 -1 4 12 10 12 22 19 27
16 4 -2 13 5 19 16 7 12 16 18 23 13 7 -4 18 -8 25 -9 11 -2 11 0 0 13 -12 15
-11 15 10 4 14 -7 22 -8 22 -1 0 5 3 9 8 9 18 -3 33 2 28 9 -3 5 1 9 9 9 8 0
11 -5 8 -10z m-2342 -24 c13 -16 12 -17 -3 -4 -10 7 -18 15 -18 17 0 8 8 3 21
-13z m339 -3 c0 -5 -2 -10 -4 -10 -3 0 -8 5 -11 10 -3 6 -1 10 4 10 6 0 11 -4
11 -10z m70 -6 c0 -2 -11 -4 -25 -4 -14 0 -25 4 -25 9 0 4 11 6 25 3 14 -2 25
-6 25 -8z m-107 -1 c-7 -2 -21 -2 -30 0 -10 3 -4 5 12 5 17 0 24 -2 18 -5z
m1144 -8 c0 -8 -4 -12 -9 -9 -5 3 -6 10 -3 15 9 13 12 11 12 -6z m176 8 c-7
-2 -21 -2 -30 0 -10 3 -4 5 12 5 17 0 24 -2 18 -5z m97 -1 c0 -4 -18 -6 -40
-4 -22 2 -40 6 -40 8 0 2 18 4 40 4 22 0 40 -3 40 -8z m-1620 -69 c0 -8 -80
52 -80 60 0 4 18 -7 40 -24 22 -18 40 -34 40 -36z m357 61 c-3 -3 -12 -4 -19
-1 -8 3 -5 6 6 6 11 1 17 -2 13 -5z m93 -3 c0 -5 -7 -12 -16 -15 -14 -5 -15
-4 -4 9 14 17 20 19 20 6z m977 -7 c-3 -3 -12 -4 -19 -1 -8 3 -5 6 6 6 11 1
17 -2 13 -5z m-933 -28 c-3 -9 -10 -13 -16 -10 -5 3 -4 12 3 20 15 18 22 13
13 -10z m989 17 c-7 -2 -19 -2 -25 0 -7 3 -2 5 12 5 14 0 19 -2 13 -5z m3339
-25 c-8 -8 -9 -4 -5 13 4 13 8 18 11 10 2 -7 -1 -18 -6 -23z m-38 -29 c54 -25
65 -46 31 -61 -18 -8 -28 -8 -38 0 -20 17 -26 5 -20 -33 6 -37 -10 -53 -32
-35 -17 14 -20 45 -4 34 7 -4 7 1 -1 16 -10 18 -10 31 0 61 7 22 15 39 17 39
2 0 23 -9 47 -21z m-3420 -28 c-2 -3 -12 3 -22 13 -16 17 -16 18 5 5 12 -7 20
-15 17 -18z m3267 2 c-12 -20 -14 -14 -5 12 4 9 9 14 11 11 3 -2 0 -13 -6 -23z
m-26 7 c-3 -5 -12 -10 -18 -10 -7 0 -6 4 3 10 19 12 23 12 15 0z m-2150 -85
c222 -57 408 -249 438 -455 3 -19 3 -29 1 -23 -4 10 -9 9 -21 -2 -13 -14 -18
-7 -42 63 -31 90 -69 148 -137 212 -43 40 -42 38 9 -17 65 -70 121 -178 122
-234 0 -21 3 -35 6 -33 4 2 7 -20 6 -49 l0 -52 -13 35 c-10 28 -18 28 -16 0 0
-3 -8 -6 -18 -6 -10 0 -17 3 -14 7 2 4 -2 43 -10 87 -24 135 -66 198 -232 341
-47 41 -108 58 -232 65 -51 3 -96 8 -101 11 -5 3 -12 -1 -15 -7 -3 -7 -3 -3 0
10 3 13 1 29 -5 36 -9 10 -6 13 14 11 14 -2 25 0 25 5 0 14 174 11 235 -5z
m2386 -30 c6 -31 -5 -65 -21 -65 -13 0 -42 71 -35 88 3 7 15 12 27 10 16 -2
25 -12 29 -33z m-2675 12 c8 3 14 0 14 -6 0 -6 -11 -10 -24 -9 -17 2 -22 7
-18 17 4 9 7 11 9 4 3 -7 11 -9 19 -6z m2545 -49 c11 -15 29 -30 42 -34 22 -7
22 -7 -3 -17 -14 -6 -29 -9 -33 -8 -5 1 -6 -3 -3 -8 3 -5 -1 -15 -10 -22 -14
-12 -14 -14 1 -25 14 -10 13 -12 -9 -10 -24 1 -24 2 -9 25 9 14 11 26 6 30
-17 11 -34 73 -23 86 5 6 7 15 4 18 -3 3 -2 12 2 19 6 10 10 8 12 -7 3 -11 13
-32 23 -47z m-3963 21 c3 -12 2 -12 -6 0 -6 8 -15 10 -22 6 -9 -5 -11 -4 -6 4
10 15 28 10 34 -10z m2286 -79 c16 -29 22 -48 14 -45 -15 6 -68 89 -68 107 0
19 26 -10 54 -62z m-3344 -74 c0 -74 3 -141 6 -150 5 -14 29 -16 165 -16 146
0 159 -1 169 -19 12 -23 14 -248 2 -255 -5 -3 -7 21 -5 52 2 41 0 51 -6 37 -7
-14 -10 -16 -11 -5 -1 8 -6 4 -10 -10 -7 -22 -8 -21 -9 12 -1 27 -6 38 -21 43
-23 7 -54 60 -46 78 3 7 5 6 5 -3 1 -8 13 -29 29 -45 l27 -30 3 44 c4 50 2 54
-35 56 -83 6 -203 16 -235 21 -36 5 -36 6 -48 70 -7 36 -15 100 -19 142 -5 70
-8 77 -26 74 -11 -2 -33 -4 -50 -5 -16 -2 -36 -6 -44 -11 -11 -7 -13 -3 -9 17
3 15 0 28 -6 31 -6 2 31 5 82 5 l92 1 0 -134z m1030 124 c0 -5 -5 -10 -11 -10
-5 0 -7 5 -4 10 3 6 8 10 11 10 2 0 4 -4 4 -10z m-2034 -38 c-17 -16 -18 -16
-5 5 7 12 15 20 18 17 3 -2 -3 -12 -13 -22z m817 21 c-7 -2 -19 -2 -25 0 -7 3
-2 5 12 5 14 0 19 -2 13 -5z m4997 -31 c0 -15 -2 -15 -10 -2 -13 20 -13 33 0
25 6 -3 10 -14 10 -23z m-1090 4 c0 -11 -19 -15 -25 -6 -3 5 1 10 9 10 9 0 16
-2 16 -4z m-3925 -31 c-35 -29 -45 -31 -45 -9 0 8 3 13 8 10 4 -2 18 2 32 10
37 20 39 16 5 -11z m3880 15 c-3 -5 -1 -10 4 -10 6 0 11 -5 11 -11 0 -8 -5 -8
-15 1 -13 11 -12 30 1 30 3 0 2 -4 -1 -10z m96 -13 c-1 -4 -1 -12 -1 -18 0 -5
-5 -7 -10 -4 -6 4 -8 11 -5 16 4 5 -1 9 -9 9 -9 0 -16 4 -16 10 0 5 9 6 21 2
11 -5 20 -11 20 -15z m939 -34 c0 -17 -4 -35 -10 -38 -5 -3 -10 3 -10 14 0 30
-18 26 -38 -10 -32 -58 -43 -64 -16 -9 41 84 56 104 65 88 5 -7 9 -27 9 -45z
m-1942 -19 c139 -69 226 -218 194 -329 -8 -25 -9 -20 -9 32 -1 44 -8 76 -26
115 -27 58 -114 161 -128 152 -5 -3 -9 -1 -9 4 0 9 -79 43 -114 49 -30 5 -32
13 -4 13 14 0 57 -16 96 -36z m1057 4 c6 -4 2 -8 -7 -8 -10 0 -18 7 -18 17 0
9 3 12 8 7 4 -5 12 -12 17 -16z m-3891 -5 c4 -11 1 -11 -14 -3 -24 13 -25 17
-5 17 8 0 16 -6 19 -14z m3900 -25 c15 2 23 -2 23 -12 0 -12 -3 -13 -14 -4 -7
6 -16 8 -20 5 -3 -4 -12 -2 -20 4 -7 6 -13 8 -13 5 0 -4 -6 -1 -14 6 -8 7 -12
17 -9 21 3 5 14 0 25 -10 11 -10 30 -17 42 -15z m-64 -12 c0 -2 -9 -6 -20 -9
-11 -3 -18 -1 -14 4 5 9 34 13 34 5z m112 -49 c-6 -23 -22 -32 -22 -13 0 9 -7
17 -15 17 -52 5 -52 14 -1 14 36 0 42 -3 38 -18z m-5512 -32 c0 -5 -5 -3 -10
5 -5 8 -10 20 -10 25 0 6 5 3 10 -5 5 -8 10 -19 10 -25z m-87 10 c-3 -9 -8
-14 -10 -11 -3 3 -2 9 2 15 9 16 15 13 8 -4z m5627 -15 c0 -5 -4 -10 -9 -10
-6 0 -13 5 -16 10 -3 6 1 10 9 10 9 0 16 -4 16 -10z m680 -4 c0 -2 -7 -9 -15
-16 -13 -11 -14 -10 -9 4 5 14 24 23 24 12z m-4905 -36 c-17 -19 -16 -20 26
-57 50 -44 76 -70 142 -139 l49 -51 -13 -44 c-6 -24 -12 -56 -12 -71 0 -16 -4
-28 -9 -28 -5 0 -4 -8 1 -19 6 -10 7 -21 4 -25 -3 -3 1 -6 10 -6 10 0 15 -7
12 -20 -2 -12 3 -21 16 -25 38 -12 18 -22 -38 -18 -42 2 -52 0 -38 -6 14 -7
16 -10 5 -10 -9 -1 -21 4 -28 11 -9 9 -12 8 -13 -8 0 -11 -3 -14 -6 -6 -6 16
-33 -3 -33 -25 0 -11 -4 -11 -20 -3 -11 6 -25 8 -30 5 -6 -4 -10 34 -10 101 0
95 -3 112 -22 141 l-23 33 -150 1 c-82 1 -154 1 -159 0 -12 -3 -2 210 12 235
11 21 20 22 161 25 102 3 154 8 163 17 20 20 23 14 3 -8z m5375 -11 c0 -6 -7
-6 -20 1 -11 6 -20 15 -20 21 0 6 7 6 20 -1 11 -6 20 -15 20 -21z m-6819 -12
c-10 -9 -11 -8 -5 6 3 10 9 15 12 12 3 -3 0 -11 -7 -18z m6309 -1 c0 -2 -7 -9
-15 -16 -13 -11 -14 -10 -9 4 5 14 24 23 24 12z m-6335 -46 c-9 -16 -18 -30
-21 -30 -2 0 2 14 11 30 9 17 18 30 21 30 2 0 -2 -13 -11 -30z m6295 -9 c-5
-11 -15 -23 -22 -27 -7 -5 -8 -2 -3 7 21 37 44 55 25 20z m506 -45 c24 -24 22
-55 -2 -35 -8 6 -14 18 -14 26 0 10 -7 14 -19 10 -20 -5 -51 9 -51 23 0 6 9
10 21 10 16 0 20 4 15 18 -4 10 1 8 12 -7 9 -13 26 -33 38 -45z m-131 44 c3
-5 1 -10 -4 -10 -6 0 -11 5 -11 10 0 6 2 10 4 10 3 0 8 -4 11 -10z m-5 -40
c11 -11 20 -16 20 -12 0 5 10 8 23 6 12 -1 26 -3 30 -3 5 -1 6 -9 3 -19 -4
-10 4 -29 19 -46 14 -16 25 -36 25 -44 0 -21 -59 35 -72 68 -6 17 -11 21 -17
12 -4 -7 -12 -12 -17 -11 -26 4 -64 -2 -64 -12 0 -6 8 -8 18 -5 25 8 56 -13
97 -67 20 -26 40 -45 45 -42 5 3 12 0 16 -6 5 -8 3 -9 -6 -4 -10 6 -12 3 -8
-13 7 -24 -2 -28 -20 -10 -9 9 -15 9 -24 -1 -11 -11 -10 -12 1 -6 10 6 12 4 7
-4 -6 -9 -11 -9 -22 0 -18 15 -18 5 1 -31 9 -17 11 -30 6 -30 -5 0 -17 20 -26
43 -9 24 -22 44 -30 44 -16 0 -13 -21 7 -44 34 -40 48 -77 52 -138 1 -22 6
-48 11 -59 6 -14 5 -18 -6 -14 -8 2 -15 15 -17 27 -2 12 -15 52 -28 89 -23 61
-31 86 -33 103 -2 14 -71 82 -77 76 -4 -3 -15 -2 -25 4 -13 7 -19 6 -19 -1 0
-6 -4 -8 -10 -5 -5 3 -10 4 -10 1 0 -3 12 -12 27 -19 14 -8 28 -23 29 -33 5
-38 13 -63 29 -88 9 -14 20 -54 25 -89 6 -53 20 -96 47 -149 2 -4 -1 -9 -7
-13 -5 -3 -23 19 -41 50 -17 30 -35 52 -40 49 -5 -3 -8 -2 -7 3 2 5 -12 41
-31 79 -34 71 -70 104 -112 104 -11 0 -17 5 -14 10 14 23 63 10 101 -27 36
-36 31 -22 -9 23 -18 21 -18 21 10 16 15 -3 31 -9 34 -15 4 -5 9 -5 13 2 9 15
-52 51 -87 51 -16 0 -26 4 -23 9 3 5 23 7 43 4 36 -4 37 -4 18 11 -11 8 -26
16 -33 16 -17 0 10 47 61 106 39 44 61 54 70 32 3 -7 6 -1 6 15 1 32 14 34 41
7z m-7246 -25 c9 -14 13 -25 9 -25 -14 1 -43 27 -43 39 0 19 17 12 34 -14z
m7431 5 c3 -5 1 -10 -4 -10 -6 0 -11 5 -11 10 0 6 2 10 4 10 3 0 8 -4 11 -10z
m-607 -25 c-6 -14 -15 -25 -19 -25 -5 0 -6 -7 -3 -15 4 -8 1 -15 -6 -15 -6 0
-8 -5 -5 -10 3 -6 -1 -13 -9 -16 -9 -3 -14 -10 -11 -14 3 -5 1 -11 -5 -15 -5
-3 -10 -20 -10 -37 0 -25 3 -29 20 -25 24 6 26 -5 5 -23 -12 -10 -18 -10 -31
1 -23 19 -11 74 33 153 37 64 64 92 41 41z m-4174 6 c3 -5 -1 -12 -10 -15 -8
-3 -13 -2 -9 3 3 5 -1 12 -7 14 -8 4 -7 6 4 6 9 1 19 -3 22 -8z m-2541 -151
c111 -166 111 -165 84 -167 -14 -2 -17 1 -9 6 7 4 10 15 6 24 -4 12 -11 14
-31 6 -31 -12 -43 -11 -43 1 0 5 11 12 25 16 14 3 25 10 25 14 0 13 -26 30
-35 22 -5 -4 -5 -1 -1 5 4 8 -5 18 -26 27 -24 10 -27 15 -13 15 16 1 14 6 -15
31 -19 17 -30 30 -25 29 24 -3 24 3 2 39 -69 110 -45 80 56 -68z m5760 93 c-9
-25 -43 -80 -43 -70 0 11 39 87 45 87 2 0 1 -8 -2 -17z m-3176 -15 c-3 -8 -6
-5 -6 6 -1 11 2 17 5 13 3 -3 4 -12 1 -19z m-2307 -18 c6 -11 8 -20 6 -20 -3
0 -10 9 -16 20 -6 11 -8 20 -6 20 3 0 10 -9 16 -20z m2284 5 c-4 -8 -8 -15
-10 -15 -2 0 -4 7 -4 15 0 8 4 15 10 15 5 0 7 -7 4 -15z m4076 7 c0 -5 -7 -17
-16 -28 -8 -10 -14 -14 -11 -9 2 6 7 18 10 28 7 17 17 23 17 9z m-4125 -12 c3
-5 -1 -10 -9 -10 -9 0 -16 5 -16 10 0 6 4 10 9 10 6 0 13 -4 16 -10z m4895
-10 c0 -5 -4 -10 -10 -10 -5 0 -10 5 -10 10 0 6 5 10 10 10 6 0 10 -4 10 -10z
m-5154 -178 c-1 -87 -5 -163 -9 -169 -6 -9 -16 -9 -38 -1 -17 6 -26 13 -21 17
6 4 12 67 14 149 2 113 6 145 18 152 36 23 38 14 36 -148z m5044 137 c0 -6 -4
-7 -10 -4 -5 3 -10 11 -10 16 0 6 5 7 10 4 6 -3 10 -11 10 -16z m-7002 -34
c-3 -3 -9 2 -12 12 -6 14 -5 15 5 6 7 -7 10 -15 7 -18z m7129 -21 l23 -35 -21
6 c-15 5 -19 4 -15 -4 4 -6 2 -11 -4 -11 -6 0 -16 12 -23 27 -9 21 -9 27 1 31
10 3 10 7 1 18 -9 11 -9 13 2 9 8 -4 24 -22 36 -41z m-922 -24 c3 -5 1 -10 -4
-10 -6 0 -11 5 -11 10 0 6 2 10 4 10 3 0 8 -4 11 -10z m-3284 -37 c13 -15 12
-15 -9 -4 -12 6 -28 9 -34 5 -7 -4 -8 -3 -4 4 10 17 31 15 47 -5z m3380 -16
c-10 -9 -11 -8 -5 6 3 10 9 15 12 12 3 -3 0 -11 -7 -18z m358 -1 c34 -22 42
-34 61 -98 12 -40 27 -79 32 -85 6 -7 8 -19 5 -27 -3 -7 -2 -17 3 -22 4 -5 5
-17 1 -28 -5 -14 -15 3 -38 65 -18 46 -34 96 -37 111 -8 36 -41 66 -88 80 -20
6 -35 15 -32 19 10 17 54 9 93 -15z m-66 -32 c35 -18 87 -63 87 -76 0 -4 -9 1
-20 12 -11 11 -25 20 -31 20 -6 0 -2 -8 9 -17 11 -10 28 -31 37 -48 14 -25 11
-23 -17 10 -20 22 -35 43 -34 46 3 14 -27 38 -55 44 -16 4 -27 11 -23 16 7 12
10 12 47 -7z m262 -54 c-3 -5 0 -19 5 -32 10 -22 10 -22 5 5 -7 33 2 35 15 5
6 -13 23 -43 39 -68 37 -57 39 -71 4 -29 -16 18 -27 36 -26 40 1 4 -4 10 -13
13 -10 4 -13 1 -9 -7 4 -6 -2 -1 -13 13 -20 24 -32 63 -32 104 0 18 2 17 15
-8 8 -15 13 -32 10 -36z m-233 -28 c15 -14 25 -29 22 -34 -3 -5 2 -18 12 -29
9 -10 15 -21 12 -24 -5 -6 -39 40 -38 51 1 6 -61 49 -80 56 -7 2 -14 12 -16
21 -2 15 0 15 29 1 18 -9 44 -28 59 -42z m-4758 12 c3 -8 2 -12 -4 -9 -6 3
-10 10 -10 16 0 14 7 11 14 -7z m4717 -46 c29 -24 59 -54 67 -68 9 -15 -1 -8
-28 18 -23 23 -60 52 -81 63 -41 21 -48 29 -24 29 8 0 38 -19 66 -42z m-4801
-18 c0 -5 -2 -10 -4 -10 -3 0 -8 5 -11 10 -3 6 -1 10 4 10 6 0 11 -4 11 -10z
m4780 -25 c19 -19 32 -35 29 -35 -3 0 -20 16 -39 35 -19 19 -32 35 -29 35 3 0
20 -16 39 -35z m240 -35 c0 -8 -7 -2 -15 14 -8 15 -15 33 -15 40 1 16 29 -36
30 -54z m-255 15 c22 -19 36 -35 30 -34 -5 0 -28 15 -50 34 -22 19 -35 35 -30
34 6 0 28 -15 50 -34z m346 18 c13 -16 12 -17 -3 -4 -10 7 -18 15 -18 17 0 8
8 3 21 -13z m-991 -65 c0 -4 -13 -2 -30 3 -16 6 -30 15 -30 19 0 5 14 3 30 -3
17 -6 30 -15 30 -19z m965 -7 c2 -12 0 -19 -6 -16 -5 4 -9 16 -9 27 0 26 9 19
15 -11z m-45 -1 c6 -11 8 -20 6 -20 -3 0 -10 9 -16 20 -6 11 -8 20 -6 20 3 0
10 -9 16 -20z m-965 0 c3 -5 1 -10 -4 -10 -6 0 -11 5 -11 10 0 6 2 10 4 10 3
0 8 -4 11 -10z m765 -15 c13 -14 21 -25 18 -25 -2 0 -15 11 -28 25 -13 14 -21
25 -18 25 2 0 15 -11 28 -25z m-6049 -2 c13 -16 12 -17 -3 -4 -17 13 -22 21
-14 21 2 0 10 -8 17 -17z m5179 -15 c-31 -27 -116 -72 -189 -100 -45 -17 -18
-1 85 51 56 28 107 57 114 66 7 8 15 15 19 15 3 -1 -10 -15 -29 -32z m901 15
c13 -16 12 -17 -3 -4 -10 7 -18 15 -18 17 0 8 8 3 21 -13z m314 -9 c9 -15 12
-23 6 -20 -11 7 -35 46 -28 46 3 0 12 -12 22 -26z m295 22 c0 -3 11 -70 25
-150 24 -140 32 -266 19 -301 -11 -27 -34 38 -34 94 0 40 -7 98 -35 309 -7 44
-5 52 9 52 9 0 16 -2 16 -4z m-6415 -26 c3 -6 -1 -7 -9 -4 -18 7 -21 14 -7 14
6 0 13 -4 16 -10z m5863 -15 c-3 -3 -9 2 -12 12 -6 14 -5 15 5 6 7 -7 10 -15
7 -18z m-6058 -21 c0 -2 -9 0 -20 6 -11 6 -20 13 -20 16 0 2 9 0 20 -6 11 -6
20 -13 20 -16z m60 -24 c19 -11 31 -19 27 -20 -12 0 -77 28 -77 34 0 10 14 6
50 -14z m110 -4 c0 -2 -7 -7 -16 -10 -8 -3 -12 -2 -9 4 6 10 25 14 25 6z m40
-6 c0 -5 -7 -7 -15 -4 -8 4 -15 8 -15 10 0 2 7 4 15 4 8 0 15 -4 15 -10z
m4680 -9 c-51 -10 -78 -28 -95 -61 -15 -30 -25 -38 -25 -22 0 5 16 27 36 50
32 37 40 42 77 41 l42 -1 -35 -7z m-4645 -21 c10 -11 16 -20 13 -20 -3 0 -13
9 -23 20 -10 11 -16 20 -13 20 3 0 13 -9 23 -20z m-18 -32 c11 -13 23 -30 27
-38 4 -8 -1 -4 -12 9 -11 14 -28 31 -38 38 -10 7 -13 13 -8 13 6 0 20 -10 31
-22z m4653 17 c0 -2 -10 -9 -22 -15 -22 -11 -22 -10 -4 4 21 17 26 19 26 11z
m-4711 -50 c16 -8 32 -11 36 -7 3 4 5 2 3 -5 -1 -6 6 -19 17 -28 11 -9 13 -13
5 -9 -8 4 -23 14 -32 21 -9 8 -34 21 -55 29 -21 7 -30 13 -20 14 10 0 31 -7
46 -15z m138 -62 c-3 -10 -5 -2 -5 17 0 19 2 27 5 18 2 -10 2 -26 0 -35z
m4471 16 c-3 -8 -7 -3 -11 10 -4 17 -3 21 5 13 5 -5 8 -16 6 -23z m54 9 c-4
-18 -2 -20 14 -15 18 7 18 6 -1 -8 -18 -15 -20 -15 -23 0 -4 17 4 45 12 45 2
0 2 -10 -2 -22z m-4565 -10 c-3 -8 -6 -5 -6 6 -1 11 2 17 5 13 3 -3 4 -12 1
-19z m4490 -10 c-3 -8 -6 -5 -6 6 -1 11 2 17 5 13 3 -3 4 -12 1 -19z m243 7
c0 -2 -13 -11 -30 -20 -38 -19 -40 -11 -2 9 31 17 32 18 32 11z m585 -15 c-3
-5 -12 -10 -18 -10 -7 0 -6 4 3 10 19 12 23 12 15 0z m-683 -38 c-20 -20 -32
-19 -32 1 0 6 3 8 6 4 4 -3 13 1 21 9 9 8 17 13 20 10 3 -2 -4 -13 -15 -24z
m688 8 c0 -16 -17 -20 -28 -7 -8 10 -6 13 9 14 10 1 19 -2 19 -7z m55 -28 c19
-11 19 -12 -3 -9 -12 2 -27 8 -33 14 -15 15 8 12 36 -5z m-5478 -24 c2 -18 0
-20 -7 -8 -12 18 -13 30 -2 30 4 0 9 -10 9 -22z m5553 -16 c10 -17 20 -29 23
-26 3 3 10 -3 16 -15 6 -11 7 -22 2 -25 -10 -6 -35 20 -44 47 -7 20 -29 19
-39 -3 -6 -11 -7 -10 -5 5 2 11 9 19 15 18 7 -2 12 2 12 7 0 6 -4 10 -10 10
-5 0 -10 5 -10 11 0 20 23 3 40 -29z m-300 15 c0 -2 -12 -14 -27 -28 l-28 -24
24 28 c23 25 31 32 31 24z m0 -31 c0 -2 -8 -10 -17 -17 -16 -13 -17 -12 -4 4
13 16 21 21 21 13z m-4949 -23 c13 -16 12 -17 -3 -4 -17 13 -22 21 -14 21 2 0
10 -8 17 -17z m5238 -6 c12 -15 12 -17 -3 -11 -9 3 -16 13 -16 22 0 8 1 13 3
11 1 -2 9 -12 16 -22z m-175 -3 c3 -8 11 -12 17 -8 8 4 9 3 5 -4 -5 -9 -14 -7
-32 4 -27 19 -30 24 -10 24 8 0 17 -7 20 -16z m-4984 -23 c0 -5 -7 -14 -15
-21 -10 -9 -15 -9 -15 -1 0 6 6 11 13 11 8 0 7 4 -3 10 -13 8 -12 10 3 10 9 0
17 -4 17 -9z m38 -10 c11 -7 10 -9 -3 -14 -9 -4 -14 -3 -10 2 3 5 -1 12 -7 14
-7 3 -8 6 -3 6 6 0 16 -3 23 -8z m3949 3 c-3 -3 -12 -4 -19 -1 -8 3 -5 6 6 6
11 1 17 -2 13 -5z m363 -4 c0 -5 -5 -10 -11 -10 -5 0 -7 5 -4 10 3 6 8 10 11
10 2 0 4 -4 4 -10z m-4224 -35 c-1 -8 -13 -27 -27 -42 l-24 -28 27 24 c15 13
33 21 41 18 8 -3 20 0 27 6 10 9 11 9 5 -3 -20 -35 -58 -79 -65 -75 -4 3 -14
-3 -21 -13 -13 -16 -13 -16 5 -2 18 14 18 14 6 -7 -13 -20 -15 -20 -27 -5 -7
9 -13 14 -14 10 -1 -5 -2 -11 -3 -16 -2 -13 -56 -77 -56 -66 0 5 8 19 18 30 9
10 23 32 30 48 12 27 12 28 -4 15 -12 -9 -15 -9 -10 -1 10 17 -4 15 -28 -5
l-21 -18 21 25 c11 14 29 39 39 55 18 30 18 30 -2 13 -29 -26 -38 -22 -18 10
18 27 18 27 -2 10 -11 -10 -23 -18 -28 -18 -5 0 -20 -10 -33 -22 -28 -26 -20
-5 11 30 11 12 15 22 9 22 -7 0 -12 -4 -12 -9 0 -5 -12 -17 -27 -26 l-28 -18
30 32 c16 17 35 29 43 26 7 -3 22 0 32 5 22 12 53 2 43 -14 -4 -6 1 -5 10 3
15 12 17 11 17 -3 0 -10 5 -14 11 -10 6 3 9 14 6 24 -3 12 0 17 8 14 7 -3 12
-12 11 -19z m4014 14 c0 -8 -79 -3 -88 5 -2 3 16 5 42 4 25 0 46 -4 46 -9z
m248 -2 c13 5 14 3 5 -7 -13 -14 -33 -5 -32 13 0 9 2 9 5 0 3 -7 13 -9 22 -6z
m842 9 c0 -2 -8 -10 -17 -17 -16 -13 -17 -12 -4 4 13 16 21 21 21 13z m-5560
-10 c0 -2 -7 -9 -15 -16 -13 -11 -14 -10 -9 4 5 14 24 23 24 12z m592 -44
c-44 -43 -72 -89 -95 -155 -4 -10 -11 -15 -17 -12 -5 3 -10 0 -10 -7 0 -10 -2
-10 -9 1 -7 11 -10 10 -14 -5 -3 -10 -3 1 0 26 3 25 13 60 22 79 18 40 76 89
109 94 12 2 28 9 34 15 7 7 16 12 21 12 4 0 -14 -22 -41 -48z m123 30 c-3 -3
-11 0 -18 7 -9 10 -8 11 6 5 10 -3 15 -9 12 -12z m3615 3 c6 3 10 2 10 -4 0
-15 56 -23 93 -13 19 5 40 6 47 2 13 -8 -36 -20 -84 -20 -30 0 -116 33 -116
45 0 3 9 1 20 -5 11 -6 25 -8 30 -5z m1080 -12 c-1 -24 -2 -26 -11 -10 -5 9
-7 22 -4 27 10 17 15 11 15 -17z m-5360 7 c-8 -5 -19 -10 -25 -10 -5 0 -3 5 5
10 8 5 20 10 25 10 6 0 3 -5 -5 -10z m40 6 c0 -3 -4 -8 -10 -11 -5 -3 -10 -1
-10 4 0 6 5 11 10 11 6 0 10 -2 10 -4z m4533 -2 c10 -11 -5 -34 -22 -34 -25 0
-33 11 -20 27 12 14 31 17 42 7z m316 3 c-2 -1 -13 -9 -24 -17 -19 -14 -19
-14 -6 3 7 9 18 17 24 17 6 0 8 -1 6 -3z m-1084 -17 c3 -5 11 -10 16 -10 6 0
7 5 4 10 -4 7 3 8 22 4 40 -9 50 -22 14 -18 l-31 4 43 -43 c24 -23 50 -53 58
-66 l15 -23 -2 28 c-1 16 -6 28 -11 27 -6 -1 -25 14 -44 34 -19 19 -27 33 -19
31 8 -3 23 -1 34 4 12 7 16 7 12 0 -3 -5 17 -29 45 -52 63 -53 92 -97 76 -115
-9 -9 -15 -7 -28 9 -10 11 -15 25 -11 30 3 5 8 1 12 -9 4 -11 9 -14 13 -8 4 6
-3 19 -15 29 -12 11 -18 13 -14 7 4 -7 3 -13 -3 -13 -5 0 -11 6 -14 13 -2 6
-8 9 -12 4 -5 -4 -3 -13 3 -19 15 -15 16 -32 2 -23 -5 3 -10 2 -10 -4 0 -5 4
-12 9 -15 8 -6 22 -46 16 -46 -2 0 -14 21 -27 46 -30 61 -92 131 -147 166 -25
15 -38 28 -29 28 9 0 20 -4 23 -10z m145 -4 c0 -6 4 -6 11 1 6 6 25 7 49 3 23
-4 43 -3 49 3 13 13 75 -5 141 -38 49 -26 158 -132 154 -152 -1 -7 -2 -16 -3
-20 -1 -5 -5 -1 -11 7 -6 9 -5 17 3 22 9 6 9 8 0 8 -6 0 -15 -5 -18 -10 -5 -8
-12 -7 -23 2 -15 12 -16 11 -3 -4 7 -10 18 -15 24 -11 5 3 7 1 4 -4 -4 -6 -20
-9 -37 -8 -16 1 -30 -1 -30 -5 0 -16 -38 -3 -61 20 -13 15 -18 19 -11 10 20
-26 14 -35 -10 -14 l-21 19 19 -30 c12 -20 14 -26 4 -18 -8 6 -24 29 -35 50
-11 21 -29 47 -40 58 -11 11 -25 29 -31 40 -6 11 -15 20 -20 20 -12 1 -67 36
-76 50 -4 5 -8 6 -8 2 0 -5 24 -31 54 -58 30 -28 65 -72 80 -102 37 -77 32
-83 -8 -9 -45 82 -49 87 -125 138 -42 28 -57 42 -43 41 12 -1 22 -6 22 -11z
m552 2 c-6 -7 -10 -17 -10 -23 0 -5 -6 -11 -12 -13 -8 -3 -10 3 -5 18 5 17 4
21 -5 15 -9 -5 -11 -4 -6 3 4 7 16 12 28 12 15 0 18 -3 10 -12z m-227 -58 c4
-6 10 -8 15 -5 12 7 120 -45 120 -58 0 -7 -4 -6 -10 3 -9 14 -14 7 -11 -13 1
-4 -8 -3 -19 3 -23 12 -27 25 -5 16 26 -10 16 3 -15 19 -28 14 -35 13 -31 -8
1 -5 -18 7 -41 26 -24 19 -58 42 -75 51 -18 9 -33 19 -33 21 0 8 98 -43 105
-55z m1205 56 c0 -2 -8 -10 -17 -17 -16 -13 -17 -12 -4 4 13 16 21 21 21 13z
m-946 -32 c8 -20 8 -20 -24 -27 -14 -3 -32 -2 -40 4 -11 8 -9 9 10 3 14 -3 22
-3 18 1 -8 9 9 35 22 35 4 0 11 -7 14 -16z m-77 0 c-3 -3 -12 -4 -19 -1 -8 3
-5 6 6 6 11 1 17 -2 13 -5z m876 -9 c-3 -9 -8 -14 -10 -11 -3 3 -2 9 2 15 9
16 15 13 8 -4z m64 -74 c-76 -115 -79 -120 -61 -81 17 36 102 160 109 160 3 0
-19 -36 -48 -79z m-4893 19 c-9 -16 -17 -30 -19 -30 -2 0 1 14 6 30 6 17 15
30 19 30 5 0 2 -13 -6 -30z m3300 -10 c20 -22 36 -48 36 -58 0 -11 -6 -7 -16
13 -19 37 -49 66 -60 57 -4 -4 -4 -2 -1 5 4 6 1 14 -5 16 -8 4 -9 6 -2 6 7 1
28 -17 48 -39z m75 -22 c37 -46 20 -39 -24 10 -22 25 -31 39 -20 32 11 -7 31
-26 44 -42z m788 37 c0 -8 -4 -12 -9 -9 -5 3 -6 10 -3 15 9 13 12 11 12 -6z
m-4134 -12 c-5 -12 -3 -14 8 -8 8 5 11 4 6 0 -10 -11 -37 -15 -37 -6 0 7 21
31 27 31 1 0 -1 -7 -4 -17z m4064 -29 c-3 -3 -12 -4 -19 -1 -8 3 -5 6 6 6 11
1 17 -2 13 -5z m-4007 -14 c0 -5 -2 -10 -4 -10 -3 0 -8 5 -11 10 -3 6 -1 10 4
10 6 0 11 -4 11 -10z m3874 1 c9 -14 -26 -23 -38 -11 -8 8 -6 9 8 4 13 -5 17
-4 12 4 -4 7 -3 12 3 12 5 0 12 -4 15 -9z m604 -8 c-2 -10 -13 -18 -25 -19
-13 -1 -20 3 -17 8 3 5 12 7 20 4 8 -3 14 -1 14 3 0 5 -6 12 -12 14 -8 3 -5 6
5 6 12 1 17 -5 15 -16z m-4578 -13 c0 -5 -5 -10 -11 -10 -5 0 -7 5 -4 10 3 6
8 10 11 10 2 0 4 -4 4 -10z m3948 -90 c6 0 13 -4 17 -10 12 -20 -53 12 -76 37
l-24 26 36 -26 c20 -15 41 -27 47 -27z m96 15 c-4 -8 -11 -15 -16 -15 -6 0 -5
6 2 15 7 8 14 15 16 15 2 0 1 -7 -2 -15z m-37 -21 c-3 -3 -12 -4 -19 -1 -8 3
-5 6 6 6 11 1 17 -2 13 -5z m10 -20 c-3 -3 -12 -4 -19 -1 -8 3 -5 6 6 6 11 1
17 -2 13 -5z m590 -119 c-15 -16 -19 -13 -11 9 3 9 10 13 15 10 5 -3 3 -11 -4
-19z m-846 -122 c13 -16 12 -17 -3 -4 -10 7 -18 15 -18 17 0 8 8 3 21 -13z
m39 -48 c13 -14 21 -25 18 -25 -2 0 -15 11 -28 25 -13 14 -21 25 -18 25 2 0
15 -11 28 -25z m1871 -108 c-10 -9 -11 -8 -5 6 3 10 9 15 12 12 3 -3 0 -11 -7
-18z m-490 -64 c12 -16 12 -17 -2 -6 -9 7 -20 9 -24 5 -5 -4 -5 -1 -1 6 9 16
11 15 27 -5z m-1064 -1519 c-3 -3 -12 -4 -19 -1 -8 3 -5 6 6 6 11 1 17 -2 13
-5z"/>
<path d="M4834 9726 c3 -22 22 -40 30 -28 3 5 -3 17 -13 27 -17 15 -19 15 -17
1z"/>
<path d="M4034 9543 c2 -10 6 -17 10 -16 15 3 16 11 2 22 -12 10 -14 9 -12 -6z"/>
<path d="M5463 8933 c-8 -20 3 -27 41 -28 21 -1 33 4 33 12 0 10 -4 10 -15 1
-11 -10 -13 -8 -10 7 4 22 -41 30 -49 8z"/>
<path d="M5627 8835 c-18 -17 -15 -51 3 -47 7 1 19 -3 28 -10 12 -10 14 -10 8
0 -8 14 19 12 44 -2 8 -5 -3 10 -25 33 -21 22 -40 41 -41 41 -2 0 -9 -7 -17
-15z"/>
<path d="M5519 8827 c6 -6 18 -12 27 -13 12 -2 14 0 5 9 -6 6 -18 12 -27 13
-12 2 -14 0 -5 -9z"/>
<path d="M4864 8306 c-19 -15 -19 -15 0 -12 11 2 22 8 24 14 5 16 0 15 -24 -2z"/>
<path d="M6109 8253 c0 -27 -1 -27 -9 -5 -15 36 -30 26 -30 -20 l-1 -43 -14
33 c-28 64 -45 30 -26 -52 6 -22 6 -35 1 -30 -5 5 -11 20 -13 32 -8 56 -47 52
-48 -6 0 -31 -2 -34 -9 -16 -13 33 -28 37 -41 12 -7 -13 -19 -28 -27 -34 -12
-9 -13 -19 -5 -52 14 -53 1 -47 -17 8 -16 48 -33 47 -40 0 l-5 -34 -12 27 c-7
15 -17 27 -22 27 -12 0 -23 -29 -15 -41 3 -5 1 -9 -5 -9 -5 0 -13 9 -16 20 -9
28 -22 25 -29 -7 -6 -31 24 -157 41 -174 19 -19 32 0 26 36 -7 43 4 46 18 5
10 -27 28 -38 41 -25 5 5 -5 71 -18 120 -3 14 -1 13 9 -5 8 -14 17 -42 21 -62
7 -40 16 -51 33 -40 7 5 8 24 3 54 -3 26 -3 45 2 42 4 -3 8 -15 8 -27 1 -58
50 -62 51 -5 0 31 1 31 10 10 13 -34 35 -22 31 19 -2 32 -2 33 11 11 16 -28
36 -12 38 33 1 16 3 22 6 13 7 -27 20 -22 47 19 18 26 24 44 19 61 -4 17 -2
23 6 18 6 -4 11 -13 11 -21 0 -19 38 -7 45 15 3 10 17 35 31 56 24 35 26 64 4
64 -5 0 -10 -9 -10 -21 0 -21 0 -21 -19 2 -11 13 -22 21 -26 18 -9 -9 -9 -40
0 -64 4 -11 -5 -1 -20 23 -14 23 -28 42 -31 42 -2 0 -4 -12 -5 -27z m-22 -125
c-3 -7 -5 -2 -5 12 0 14 2 19 5 13 2 -7 2 -19 0 -25z m-145 -54 c5 -12 8 -30
5 -40 -3 -13 -5 -11 -6 9 0 15 -5 27 -11 27 -5 0 -10 12 -9 28 0 15 3 20 6 12
2 -8 9 -25 15 -36z m48 1 c0 -8 -2 -15 -4 -15 -2 0 -6 7 -10 15 -3 8 -1 15 4
15 6 0 10 -7 10 -15z m-201 -85 l-1 -25 -8 25 c-4 14 -8 32 -9 40 -1 13 0 13
9 0 5 -8 9 -26 9 -40z"/>
<path d="M6366 8254 c-20 -20 -21 -44 0 -44 8 0 12 -5 9 -10 -4 -6 -12 -8 -18
-4 -7 3 -4 -1 6 -9 9 -8 17 -17 17 -21 0 -11 41 -48 48 -42 3 3 -5 18 -18 31
-33 36 -18 60 38 60 55 0 61 10 21 34 -41 25 -82 27 -103 5z"/>
<path d="M6485 8200 c3 -5 8 -10 11 -10 2 0 4 5 4 10 0 6 -5 10 -11 10 -5 0
-7 -4 -4 -10z"/>
<path d="M5670 8043 c0 -105 32 -196 60 -167 9 10 -13 143 -30 182 -15 34 -30
26 -30 -15z"/>
<path d="M5623 8058 c-6 -7 -13 -26 -16 -43 l-4 -30 -2 32 c-1 36 -16 50 -35
34 -9 -8 -10 -27 -5 -78 12 -94 17 -113 34 -113 11 0 15 13 16 53 1 53 3 51
14 -15 4 -29 11 -38 25 -38 19 0 19 5 14 93 -7 94 -21 130 -41 105z"/>
<path d="M5443 8037 c-4 -7 -8 -15 -8 -19 0 -19 -15 -18 -15 1 0 17 -5 22 -22
19 -20 -3 -23 -10 -26 -58 -5 -87 6 -140 29 -140 17 0 19 8 20 63 0 68 17 54
18 -15 1 -34 4 -38 26 -38 24 0 25 3 26 63 l2 62 11 -60 c10 -51 15 -61 34
-63 23 -3 23 -2 16 60 -11 111 -18 133 -39 133 -15 0 -22 -9 -26 -35 l-6 -35
-2 31 c-1 33 -25 52 -38 31z"/>
<path d="M5171 8003 c-1 -21 1 -68 4 -105 6 -58 10 -68 26 -68 17 0 19 9 19
105 0 103 0 105 -23 105 -19 0 -23 -6 -26 -37z"/>
<path d="M5235 8030 c-4 -7 -4 -54 0 -106 7 -90 8 -95 28 -92 21 3 22 8 22
103 0 95 -1 100 -22 103 -11 2 -24 -2 -28 -8z"/>
<path d="M5303 8024 c-11 -30 7 -168 24 -181 9 -7 20 -10 24 -7 10 6 12 164 3
188 -8 21 -43 21 -51 0z"/>
<path d="M7041 7923 c-7 -7 -23 -13 -36 -13 -18 0 -23 -4 -19 -15 6 -14 -12
-21 -39 -16 -5 1 -6 -2 -3 -7 5 -9 -35 -32 -57 -32 -7 0 -19 -5 -27 -10 -13
-9 -13 -11 0 -20 8 -5 25 -10 38 -10 12 0 34 -7 47 -16 13 -9 30 -14 37 -11 7
2 23 1 34 -4 16 -6 21 -4 20 8 -1 19 93 54 123 46 21 -5 30 12 10 19 -6 2 10
23 35 46 25 23 40 42 33 43 -123 5 -186 2 -196 -8z"/>
<path d="M6150 7899 c0 -5 5 -7 10 -4 6 3 10 8 10 11 0 2 -4 4 -10 4 -5 0 -10
-5 -10 -11z"/>
<path d="M7302 7868 c-53 -14 -78 -24 -70 -29 19 -11 128 13 158 34 31 22 16
21 -88 -5z"/>
<path d="M7141 7803 c-1 -17 16 -25 25 -12 4 7 3 9 -4 5 -5 -3 -13 0 -15 6 -4
9 -6 10 -6 1z"/>
<path d="M6810 7783 c0 -5 7 -16 14 -26 13 -16 14 -16 20 5 5 19 8 20 16 8 8
-13 10 -12 10 3 0 12 -8 17 -30 17 -16 0 -30 -3 -30 -7z"/>
<path d="M6780 7775 c0 -2 10 -10 23 -16 20 -11 21 -11 8 4 -13 16 -31 23 -31
12z"/>
<path d="M6892 7740 c-18 -29 -15 -37 19 -49 41 -14 44 -14 30 2 -6 8 -8 18
-4 23 4 5 1 3 -7 -3 -19 -18 -35 -16 -20 1 7 9 8 21 3 30 -7 13 -10 13 -21 -4z"/>
<path d="M7891 7434 c24 -25 76 -50 86 -40 4 3 -6 20 -22 36 -20 21 -37 29
-57 28 l-28 -2 21 -22z"/>
<path d="M8085 7361 c-6 -10 45 -55 53 -46 7 6 -26 55 -38 55 -5 0 -11 -4 -15
-9z"/>
<path d="M8159 7299 c-25 -25 -13 -44 33 -54 39 -9 55 6 41 38 -15 33 -50 40
-74 16z"/>
<path d="M8057 7183 c-4 -10 -14 -28 -23 -41 -17 -22 -16 -22 9 -13 18 7 28 6
36 -3 6 -7 10 -15 8 -17 -1 -2 5 4 13 14 9 10 18 15 21 12 9 -9 -22 -95 -32
-89 -5 3 -9 0 -9 -5 0 -6 7 -11 15 -11 8 0 36 -15 62 -34 27 -18 66 -39 88
-46 22 -7 56 -21 75 -30 19 -10 38 -18 43 -19 4 -1 16 -10 27 -21 24 -24 34
-25 49 -6 9 11 6 15 -16 21 -15 3 -22 9 -17 13 7 5 6 18 -4 42 -14 33 -15 34
-23 13 -6 -17 -15 -22 -34 -21 -14 1 -25 8 -25 15 0 7 -10 12 -21 10 -15 -1
-27 8 -40 28 -27 46 -24 63 14 73 38 10 42 34 7 42 -17 4 -21 8 -12 14 6 4 12
11 12 17 0 15 -32 10 -52 -7 -14 -14 -25 -15 -50 -7 -27 8 -33 14 -30 35 2 19
-3 27 -20 32 -40 10 -66 6 -71 -11z"/>
<path d="M8025 7100 c-3 -5 -3 -10 2 -11 4 0 16 -2 26 -4 22 -4 22 2 -2 15
-13 7 -22 7 -26 0z"/>
<path d="M8550 6956 c0 -8 4 -17 9 -20 10 -7 23 19 14 28 -11 11 -23 6 -23 -8z"/>
<path d="M4038 8253 c-17 -27 -17 -27 -18 -5 0 22 -14 30 -25 13 -3 -5 6 -21
20 -35 22 -22 26 -23 40 -10 13 14 15 13 15 -4 0 -11 -5 -22 -11 -24 -7 -2 -5
-9 5 -17 14 -12 19 -8 37 33 11 26 18 55 14 64 -5 15 -9 13 -25 -8 l-20 -25 0
23 c0 30 -12 28 -32 -5z"/>
<path d="M4126 8225 c-19 -40 -26 -106 -11 -111 10 -4 55 101 55 130 0 28 -27
17 -44 -19z"/>
<path d="M5020 7469 c-35 -7 -93 -63 -105 -101 -4 -11 10 -41 36 -79 l42 -62
24 39 c13 21 36 60 51 86 15 27 30 48 33 48 4 0 33 -43 65 -95 33 -52 61 -94
64 -95 3 0 25 39 48 86 25 50 47 83 52 78 5 -5 25 -36 46 -69 20 -33 33 -51
30 -40 -12 36 -70 126 -107 166 -35 38 -38 39 -105 40 -38 1 -85 2 -104 3 -19
1 -51 -1 -70 -5z"/>
<path d="M4855 7280 c-35 -50 -31 -87 18 -162 40 -62 64 -85 92 -88 55 -6 245
1 245 9 0 5 -21 43 -47 85 l-46 76 -29 -52 c-35 -64 -55 -86 -67 -73 -5 6 -38
63 -74 127 l-64 118 -28 -40z"/>
<path d="M4809 7144 c5 -11 17 -40 27 -66 14 -39 44 -84 44 -65 0 12 -63 138
-72 143 -6 4 -6 -1 1 -12z"/>
<path d="M8599 6593 c-13 -16 -12 -17 4 -4 9 7 17 15 17 17 0 8 -8 3 -21 -13z"/>
<path d="M5136 6495 c5 -13 4 -16 -4 -11 -7 4 -12 3 -12 -2 0 -6 6 -12 14 -15
20 -8 28 19 10 34 -12 10 -13 9 -8 -6z"/>
<path d="M5191 6444 c0 -11 3 -14 6 -6 3 7 2 16 -1 19 -3 4 -6 -2 -5 -13z"/>
<path d="M5269 6153 c-13 -16 -12 -17 4 -4 9 7 17 15 17 17 0 8 -8 3 -21 -13z"/>
<path d="M8547 6033 c-14 -13 -6 -33 13 -33 22 0 23 1 14 24 -7 17 -16 20 -27
9z"/>
<path d="M6334 5868 c-4 -7 -4 -10 1 -6 4 4 14 3 21 -3 9 -7 14 -6 20 3 4 7 4
10 -1 6 -4 -4 -14 -3 -21 3 -9 7 -14 6 -20 -3z"/>
<path d="M6441 5664 c0 -11 3 -14 6 -6 3 7 2 16 -1 19 -3 4 -6 -2 -5 -13z"/>
<path d="M8900 5601 c0 -6 4 -13 10 -16 6 -3 7 1 4 9 -7 18 -14 21 -14 7z"/>
<path d="M3272 5265 c0 -16 2 -22 5 -12 2 9 2 23 0 30 -3 6 -5 -1 -5 -18z"/>
<path d="M3300 5246 c0 -8 -3 -21 -6 -30 -8 -21 10 -21 30 0 22 22 20 44 -4
44 -11 0 -20 -6 -20 -14z"/>
<path d="M3290 5094 c0 -33 33 -30 38 4 3 17 -2 22 -17 22 -16 0 -21 -6 -21
-26z"/>
<path d="M8680 5151 c0 -5 15 -20 33 -32 17 -13 35 -28 39 -33 4 -6 10 -8 13
-4 3 3 -9 22 -28 42 -33 35 -57 46 -57 27z"/>
<path d="M8647 5103 c-11 -10 -8 -35 3 -28 5 3 20 1 32 -6 23 -12 23 -11 -1
15 -28 29 -25 28 -34 19z"/>
<path d="M8731 4834 c0 -11 3 -14 6 -6 3 7 2 16 -1 19 -3 4 -6 -2 -5 -13z"/>
<path d="M3270 4105 c-7 -8 -8 -15 -2 -15 5 0 15 7 22 15 7 8 8 15 2 15 -5 0
-15 -7 -22 -15z"/>
<path d="M3201 4087 c-8 -10 -7 -14 2 -14 8 0 14 6 14 14 0 7 -1 13 -2 13 -2
0 -8 -6 -14 -13z"/>
<path d="M3284 3980 c0 -9 5 -17 11 -17 6 0 12 8 12 17 1 9 -4 17 -11 17 -6 0
-12 -8 -12 -17z"/>
<path d="M6965 4108 c16 -15 34 -28 40 -28 5 0 -1 7 -14 16 -18 13 -20 19 -10
26 10 7 9 8 -5 4 -10 -4 -24 -3 -30 1 -7 5 2 -4 19 -19z"/>
<path d="M6897 4110 c10 -11 19 -20 21 -20 1 0 -2 9 -8 20 -6 11 -15 20 -20
20 -6 0 -2 -9 7 -20z"/>
<path d="M6935 4100 c10 -11 20 -20 23 -20 3 0 -3 9 -13 20 -10 11 -20 20 -23
20 -3 0 3 -9 13 -20z"/>
<path d="M7030 4085 c6 -30 0 -38 -17 -24 -15 12 -15 10 1 -8 10 -12 23 -21
29 -20 6 1 26 -19 46 -45 20 -27 38 -43 42 -36 5 7 8 7 12 -1 3 -7 5 -7 3 1
-2 7 -8 13 -14 13 -12 0 -82 78 -82 91 0 4 16 -7 35 -26 19 -19 35 -32 35 -29
0 3 -21 25 -46 49 -25 25 -45 41 -44 35z"/>
<path d="M8105 10231 c-3 -5 -2 -12 3 -15 5 -3 9 1 9 9 0 17 -3 19 -12 6z"/>
<path d="M7766 10221 c-3 -5 1 -14 8 -20 10 -9 16 -9 21 -1 4 6 1 9 -7 8 -7
-2 -12 3 -10 10 2 14 -4 16 -12 3z"/>
<path d="M7731 10194 c0 -11 3 -14 6 -6 3 7 2 16 -1 19 -3 4 -6 -2 -5 -13z"/>
<path d="M6654 10158 c-13 -39 -13 -47 4 -60 15 -11 15 -11 4 4 -10 13 -10 17
0 21 11 4 11 6 0 6 -10 1 -10 6 -2 22 7 11 9 23 7 26 -3 2 -9 -6 -13 -19z"/>
<path d="M6614 10139 c-10 -12 -18 -30 -16 -40 2 -14 -3 -19 -20 -20 -17 -1
-18 -3 -6 -6 11 -3 17 -13 16 -28 -2 -18 -5 -21 -15 -13 -15 12 -18 -3 -3 -18
6 -6 2 -10 -12 -11 -18 -2 -20 0 -8 7 11 7 11 10 2 10 -7 0 -11 4 -7 9 3 5 1
12 -3 15 -7 4 -8 -13 -3 -57 1 -5 7 -5 14 -1 6 4 3 -3 -8 -16 -11 -13 -15 -21
-10 -17 7 3 11 -10 12 -34 1 -23 -2 -37 -8 -34 -5 4 -7 10 -4 15 3 5 1 11 -4
14 -11 7 -9 -13 2 -31 8 -13 2 -17 -17 -14 -5 1 -4 -5 4 -13 8 -11 9 -20 3
-28 -6 -7 -9 -23 -8 -36 1 -17 -2 -21 -14 -17 -13 4 -12 2 2 -9 19 -15 24 -31
5 -20 -7 4 -8 3 -4 -4 6 -10 -21 -32 -36 -29 -3 1 -8 0 -10 -3 -2 -3 -1 -4 1
-3 5 3 30 -30 31 -40 0 -4 -6 -7 -12 -6 -28 3 -40 -2 -35 -15 3 -7 0 -19 -6
-26 -9 -10 -9 -11 0 -6 6 3 14 2 18 -4 3 -5 -1 -10 -9 -10 -10 0 -13 -6 -9
-17 4 -10 2 -14 -5 -9 -6 3 -13 2 -17 -4 -4 -6 -10 -8 -14 -6 -4 3 -8 -1 -8
-9 0 -13 3 -13 17 0 9 8 19 12 23 9 7 -7 31 35 33 59 3 31 4 32 14 17 8 -13
10 -12 10 3 0 9 5 18 10 18 6 1 16 2 23 3 6 1 11 7 10 14 -2 7 1 12 6 12 6 0
9 9 8 19 -1 16 -5 18 -20 9 -10 -5 -21 -7 -24 -4 -3 3 2 8 11 12 9 3 16 12 16
20 0 8 5 14 11 14 5 0 7 -5 4 -10 -4 -6 -1 -9 7 -8 7 2 12 -3 10 -11 -3 -12 0
-12 12 -1 9 7 16 19 16 27 0 13 -3 13 -15 3 -11 -9 -15 -9 -15 -1 0 6 11 17
25 23 16 7 24 17 20 26 -3 7 -5 18 -5 23 0 6 -4 7 -10 4 -5 -3 -10 -1 -10 4 0
6 -4 11 -10 11 -5 0 -6 -8 -3 -17 5 -14 3 -13 -13 3 -11 10 -16 22 -11 25 5 4
14 13 19 20 8 11 9 10 4 -3 -5 -16 4 -23 27 -19 4 0 7 -3 7 -8 0 -12 56 -9 59
4 1 5 3 24 5 40 3 17 5 32 5 35 1 3 5 -1 10 -8 7 -11 9 -10 14 3 4 9 3 13 -2
10 -6 -3 -14 3 -20 12 -8 14 -10 15 -11 3 0 -13 -2 -13 -9 -1 -6 9 -2 21 13
35 12 11 15 15 6 9 -24 -19 -35 -16 -19 5 12 15 12 16 -2 4 -14 -11 -17 -9
-17 10 -1 28 -6 45 -19 78 -6 14 -8 30 -5 35 4 6 8 1 10 -10 6 -35 12 -46 21
-40 6 3 4 16 -4 32 -10 20 -11 31 -3 40 17 21 3 15 -18 -8z m10 -115 c3 -8 2
-12 -4 -9 -6 3 -10 10 -10 16 0 14 7 11 14 -7z m11 -52 c-9 -9 16 -42 27 -36
7 5 8 2 2 -7 -5 -8 -8 -23 -6 -34 l2 -20 -10 20 c-9 17 -10 16 -6 -8 2 -15 -1
-30 -7 -34 -6 -3 -8 8 -5 31 2 20 0 36 -4 36 -8 0 -11 -20 -9 -55 2 -15 0 -17
-7 -6 -5 7 -8 27 -7 45 2 17 0 36 -3 41 -10 17 -11 35 -1 41 5 3 6 11 2 17 -3
7 3 3 15 -7 12 -11 20 -21 17 -24z m-60 -10 c-3 -3 0 -11 7 -19 9 -11 8 -13
-3 -11 -9 2 -13 -4 -11 -17 2 -20 2 -20 -9 -1 -10 16 -9 21 0 24 8 3 9 8 2 16
-8 9 -6 13 4 13 8 0 13 -3 10 -5z m20 -51 c3 -5 2 -12 -3 -15 -5 -3 -9 1 -9 9
0 17 3 19 12 6z m-21 -95 c24 9 27 -13 3 -28 -39 -26 -53 -27 -54 -7 -1 13 5
19 20 19 17 0 19 2 7 9 -8 6 -19 7 -25 3 -5 -3 -4 2 4 12 13 15 16 15 23 2 5
-8 15 -13 22 -10z m-60 -117 c4 6 12 11 18 11 7 0 7 -4 -1 -13 -6 -8 -8 -16
-5 -20 8 -8 -18 -3 -34 6 -7 5 -9 13 -6 19 4 7 9 6 14 -2 5 -9 9 -9 14 -1z"/>
<path d="M6609 9989 c0 -2 -2 -12 -4 -21 -2 -10 1 -20 6 -24 5 -3 7 -9 5 -13
-3 -3 4 -7 15 -7 16 0 17 3 7 11 -7 5 -15 19 -16 30 -4 19 -11 33 -13 24z"/>
<path d="M6550 9794 c-17 -9 -20 -14 -9 -14 9 0 22 7 29 15 15 18 13 18 -20
-1z"/>
<path d="M7656 10121 c-3 -5 1 -11 9 -14 9 -4 12 -1 8 9 -6 16 -10 17 -17 5z"/>
<path d="M7625 10100 c-3 -5 -1 -10 4 -10 6 0 11 5 11 10 0 6 -2 10 -4 10 -3
0 -8 -4 -11 -10z"/>
<path d="M7640 10080 c-9 -6 -10 -10 -3 -10 6 0 15 5 18 10 8 12 4 12 -15 0z"/>
<path d="M6640 10060 c-9 -6 -10 -10 -3 -10 6 0 15 5 18 10 8 12 4 12 -15 0z"/>
<path d="M5040 10047 c0 -9 6 -17 13 -17 8 0 7 -4 -3 -10 -9 -6 -10 -10 -3
-10 19 0 22 14 7 35 -12 16 -14 17 -14 2z"/>
<path d="M6550 10056 c0 -2 7 -6 15 -10 8 -3 15 -1 15 4 0 6 -7 10 -15 10 -8
0 -15 -2 -15 -4z"/>
<path d="M4705 10030 c-4 -6 -11 -8 -16 -5 -16 10 -10 -2 9 -16 9 -7 14 -9 10
-5 -4 5 -3 15 3 23 6 7 9 13 6 13 -3 0 -9 -5 -12 -10z"/>
<path d="M6646 10028 c3 -5 10 -6 15 -3 13 9 11 12 -6 12 -8 0 -12 -4 -9 -9z"/>
<path d="M7560 10020 c-18 -12 -2 -12 25 0 13 6 15 9 5 9 -8 0 -22 -4 -30 -9z"/>
<path d="M4810 9995 c0 -2 6 -8 13 -14 10 -8 14 -7 14 2 0 8 -6 14 -14 14 -7
0 -13 -1 -13 -2z"/>
<path d="M6683 9965 c0 -8 4 -12 9 -9 5 3 6 10 3 15 -9 13 -12 11 -12 -6z"/>
<path d="M4695 9961 c-3 -5 -1 -12 5 -16 6 -4 7 -11 4 -17 -4 -7 -2 -8 5 -4 8
6 9 12 2 20 -6 7 -8 16 -4 19 3 4 4 7 0 7 -3 0 -8 -4 -12 -9z"/>
<path d="M7515 9961 c-6 -11 13 -26 22 -17 4 3 1 6 -6 6 -7 0 -9 5 -6 10 3 6
4 10 1 10 -3 0 -7 -4 -11 -9z"/>
<path d="M4810 9934 c0 -6 11 -20 23 -32 18 -17 24 -19 24 -8 0 8 -4 13 -8 10
-4 -2 -15 6 -23 18 -9 12 -16 18 -16 12z"/>
<path d="M4793 9879 c-2 -23 3 -25 10 -4 4 8 3 16 -1 19 -4 3 -9 -4 -9 -15z"/>
<path d="M7446 9887 c3 -10 9 -15 12 -12 3 3 0 11 -7 18 -10 9 -11 8 -5 -6z"/>
<path d="M4850 9861 c0 -7 -4 -10 -8 -7 -5 3 -9 -2 -9 -10 0 -13 2 -13 16 0 8
9 12 19 8 22 -4 4 -7 2 -7 -5z"/>
<path d="M5412 9841 c7 -9 13 -18 15 -20 1 -2 1 5 0 16 0 11 -7 20 -14 20 -10
0 -10 -4 -1 -16z"/>
<path d="M6610 9818 c0 -4 5 -8 11 -8 5 0 7 -6 3 -12 -4 -7 -3 -9 1 -5 15 13
14 34 -1 34 -8 0 -14 -4 -14 -9z"/>
<path d="M6415 9541 c-3 -5 -2 -12 3 -15 5 -3 9 1 9 9 0 17 -3 19 -12 6z"/>
<path d="M6393 9523 c4 -3 -1 -16 -10 -27 -18 -21 -18 -21 4 -2 20 16 23 36 6
36 -4 0 -3 -3 0 -7z"/>
<path d="M7663 9513 c4 -3 1 -13 -6 -22 -11 -14 -10 -14 5 -2 16 12 16 31 1
31 -4 0 -3 -3 0 -7z"/>
<path d="M7567 9401 c9 -11 9 -21 -2 -47 -8 -19 -10 -36 -5 -39 4 -3 11 12 15
32 4 23 9 32 14 24 6 -9 10 -8 15 5 4 10 4 15 0 11 -4 -4 -17 1 -28 10 -12 10
-16 11 -9 4z"/>
<path d="M7538 9347 c3 -13 1 -18 -5 -14 -7 5 -9 0 -6 -13 3 -11 10 -17 15
-14 5 3 7 8 4 11 -2 3 -1 15 4 27 6 16 5 23 -5 23 -7 0 -10 -8 -7 -20z"/>
<path d="M7505 9323 c5 -18 2 -21 -12 -19 -13 3 -19 -2 -19 -14 0 -22 25 -20
38 3 6 11 5 23 -2 35 -10 15 -10 14 -5 -5z"/>
<path d="M7356 9224 c15 -13 16 -15 2 -10 -12 3 -15 1 -12 -9 5 -11 10 -12 24
-3 15 10 16 14 5 25 -8 7 -19 13 -26 13 -8 0 -5 -7 7 -16z"/>
<path d="M5991 9227 c2 -1 13 -9 24 -17 19 -14 19 -14 6 3 -7 9 -18 17 -24 17
-6 0 -8 -1 -6 -3z"/>
<path d="M7279 9198 c-5 -19 -8 -50 -4 -46 7 7 15 48 9 48 -2 0 -4 -1 -5 -2z"/>
<path d="M7326 9137 c3 -10 9 -15 12 -12 3 3 0 11 -7 18 -10 9 -11 8 -5 -6z"/>
<path d="M7073 9045 c0 -8 4 -12 9 -9 5 3 6 10 3 15 -9 13 -12 11 -12 -6z"/>
<path d="M6993 8990 c3 -16 21 -14 25 2 3 10 2 10 -6 -1 -7 -9 -11 -10 -15 -2
-4 7 -5 8 -4 1z"/>
<path d="M6754 8963 c2 -10 6 -16 11 -15 4 2 11 -2 16 -10 6 -9 8 -6 6 9 0 12
-3 20 -6 18 -2 -3 -10 0 -17 6 -9 7 -12 6 -10 -8z"/>
<path d="M7070 8959 c0 -15 18 -19 23 -6 3 8 -1 14 -9 14 -8 0 -14 -4 -14 -8z"/>
</g>
</svg>
